<svg width="59" height="63" viewBox="0 0 59 63" fill="none" xmlns="http://www.w3.org/2000/svg">
<path d="M4.58145 16.9443H0.898926V52.1247H4.58145V16.9443Z" fill="#DCEDFD"/>
<path d="M9.73697 9.40723H6.05445C4.68759 9.40875 3.37715 9.95241 2.41063 10.9189C1.44411 11.8855 0.900453 13.1959 0.898926 14.5628V15.4711H4.58145V14.5628C4.58297 13.1959 5.12663 11.8855 6.09315 10.9189C7.05967 9.95241 8.37011 9.40875 9.73697 9.40723V9.40723Z" fill="#DCEDFD"/>
<path d="M4.58145 55.9298V53.3521H0.898926V55.9298C0.900453 57.2967 1.44411 58.6071 2.41063 59.5736C3.37715 60.5402 4.68759 61.0838 6.05445 61.0853H9.73697C8.37011 61.0838 7.05967 60.5402 6.09315 59.5736C5.12663 58.6071 4.58297 57.2967 4.58145 55.9298V55.9298Z" fill="#DCEDFD"/>
<path d="M25.2866 8.03418H5.64653C4.1495 8.03587 2.71426 8.63131 1.6557 9.68988C0.597132 10.7484 0.00168944 12.1837 0 13.6807V56.6434C0.00165701 58.1405 0.59709 59.5757 1.65566 60.6343C2.71423 61.6929 4.14949 62.2883 5.64653 62.29H25.2866C26.7837 62.2883 28.2189 61.6928 29.2775 60.6343C30.336 59.5757 30.9315 58.1405 30.9332 56.6434V41.9134H29.4602V51.9789H1.47301V16.8722H21.4814C21.6767 16.8722 21.864 16.7946 22.0022 16.6565C22.1403 16.5184 22.2179 16.3311 22.2179 16.1357C22.2179 15.9404 22.1403 15.7531 22.0022 15.6149C21.864 15.4768 21.6767 15.3992 21.4814 15.3992H1.47301V13.6807C1.47424 12.5742 1.91435 11.5134 2.69677 10.7309C3.47919 9.94853 4.54002 9.50842 5.64653 9.50719H25.2866C26.3931 9.50842 27.454 9.94853 28.2364 10.7309C29.0188 11.5134 29.4589 12.5742 29.4602 13.6807V15.3992H27.7417C27.5463 15.3992 27.359 15.4768 27.2209 15.6149C27.0827 15.7531 27.0051 15.9404 27.0051 16.1357C27.0051 16.3311 27.0827 16.5184 27.2209 16.6565C27.359 16.7946 27.5463 16.8722 27.7417 16.8722H29.4602V29.0048H30.9332V13.6807C30.9315 12.1837 30.336 10.7485 29.2774 9.68991C28.2189 8.63136 26.7837 8.0359 25.2866 8.03418V8.03418ZM29.4602 53.4519V56.6434C29.459 57.75 29.0189 58.8108 28.2364 59.5932C27.454 60.3757 26.3932 60.8158 25.2866 60.817H5.64653C4.54001 60.8158 3.47916 60.3757 2.69673 59.5932C1.91431 58.8108 1.47421 57.75 1.47301 56.6434V53.4519H29.4602Z" fill="#116FFF"/>
<path d="M26 16.1357C26 15.9403 25.9224 15.753 25.7843 15.6149C25.6461 15.4768 25.4588 15.3992 25.2635 15.3992H23.8991C23.7038 15.3992 23.5164 15.4768 23.3783 15.6149C23.2402 15.753 23.1626 15.9403 23.1626 16.1357C23.1626 16.331 23.2402 16.5183 23.3783 16.6565C23.5164 16.7946 23.7038 16.8722 23.8991 16.8722H25.2635C25.4588 16.8722 25.6461 16.7946 25.7843 16.6565C25.9224 16.5183 26 16.331 26 16.1357V16.1357Z" fill="#116FFF"/>
<path d="M15.4664 59.7122C15.9763 59.7122 16.4747 59.561 16.8986 59.2777C17.3225 58.9945 17.6529 58.5919 17.848 58.1209C18.0431 57.6498 18.0941 57.1315 17.9947 56.6315C17.8952 56.1315 17.6497 55.6722 17.2892 55.3117C16.9287 54.9511 16.4694 54.7056 15.9693 54.6062C15.4693 54.5067 14.951 54.5578 14.48 54.7529C14.0089 54.948 13.6064 55.2784 13.3231 55.7023C13.0399 56.1262 12.8887 56.6246 12.8887 57.1344C12.8895 57.8178 13.1613 58.473 13.6445 58.9563C14.1278 59.4396 14.783 59.7114 15.4664 59.7122ZM15.4664 56.0297C15.6849 56.0297 15.8985 56.0944 16.0802 56.2158C16.2619 56.3372 16.4035 56.5098 16.4871 56.7116C16.5707 56.9135 16.5926 57.1356 16.55 57.3499C16.5073 57.5642 16.4021 57.7611 16.2476 57.9156C16.0931 58.0701 15.8963 58.1753 15.682 58.2179C15.4677 58.2606 15.2455 58.2387 15.0437 58.1551C14.8418 58.0715 14.6693 57.9299 14.5479 57.7482C14.4265 57.5665 14.3617 57.3529 14.3617 57.1344C14.362 56.8415 14.4785 56.5607 14.6856 56.3536C14.8927 56.1465 15.1735 56.03 15.4664 56.0297V56.0297Z" fill="#116FFF"/>
<path d="M3.73162 23.0712H7.85604C8.05138 23.0712 8.23871 22.9936 8.37683 22.8554C8.51495 22.7173 8.59255 22.53 8.59255 22.3346C8.59255 22.1393 8.51495 21.952 8.37683 21.8139C8.23871 21.6757 8.05138 21.5981 7.85604 21.5981H3.73162C3.53629 21.5981 3.34896 21.6757 3.21083 21.8139C3.07271 21.952 2.99512 22.1393 2.99512 22.3346C2.99512 22.53 3.07271 22.7173 3.21083 22.8554C3.34896 22.9936 3.53629 23.0712 3.73162 23.0712V23.0712Z" fill="#116FFF"/>
<path d="M13.8952 21.5981H11.2438C11.0485 21.5981 10.8612 21.6757 10.723 21.8139C10.5849 21.952 10.5073 22.1393 10.5073 22.3346C10.5073 22.53 10.5849 22.7173 10.723 22.8554C10.8612 22.9936 11.0485 23.0712 11.2438 23.0712H13.8952C14.0906 23.0712 14.2779 22.9936 14.416 22.8554C14.5542 22.7173 14.6317 22.53 14.6317 22.3346C14.6317 22.1393 14.5542 21.952 14.416 21.8139C14.2779 21.6757 14.0906 21.5981 13.8952 21.5981Z" fill="#116FFF"/>
<path d="M22.7826 23.0712C22.9779 23.0712 23.1653 22.9936 23.3034 22.8554C23.4415 22.7173 23.5191 22.53 23.5191 22.3346C23.5191 22.1393 23.4415 21.952 23.3034 21.8139C23.1653 21.6757 22.9779 21.5981 22.7826 21.5981H18.1672C17.9718 21.5981 17.7845 21.6757 17.6464 21.8139C17.5083 21.952 17.4307 22.1393 17.4307 22.3346C17.4307 22.53 17.5083 22.7173 17.6464 22.8554C17.7845 22.9936 17.9718 23.0712 18.1672 23.0712H22.7826Z" fill="#116FFF"/>
<path d="M3.73162 29.9452H10.8021C10.9974 29.9452 11.1847 29.8676 11.3228 29.7295C11.461 29.5913 11.5386 29.404 11.5386 29.2087C11.5386 29.0133 11.461 28.826 11.3228 28.6879C11.1847 28.5498 10.9974 28.4722 10.8021 28.4722H3.73162C3.53629 28.4722 3.34896 28.5498 3.21083 28.6879C3.07271 28.826 2.99512 29.0133 2.99512 29.2087C2.99512 29.404 3.07271 29.5913 3.21083 29.7295C3.34896 29.8676 3.53629 29.9452 3.73162 29.9452V29.9452Z" fill="#116FFF"/>
<path d="M16.596 28.4722H14.1901C13.9948 28.4722 13.8075 28.5498 13.6693 28.6879C13.5312 28.826 13.4536 29.0133 13.4536 29.2087C13.4536 29.404 13.5312 29.5913 13.6693 29.7295C13.8075 29.8676 13.9948 29.9452 14.1901 29.9452H16.596C16.7914 29.9452 16.9787 29.8676 17.1168 29.7295C17.2549 29.5913 17.3325 29.404 17.3325 29.2087C17.3325 29.0133 17.2549 28.826 17.1168 28.6879C16.9787 28.5498 16.7914 28.4722 16.596 28.4722Z" fill="#116FFF"/>
<path d="M3.73162 36.8192H5.49923C5.69456 36.8192 5.8819 36.7416 6.02002 36.6035C6.15814 36.4654 6.23573 36.278 6.23573 36.0827C6.23573 35.8874 6.15814 35.7 6.02002 35.5619C5.8819 35.4238 5.69456 35.3462 5.49923 35.3462H3.73162C3.53629 35.3462 3.34896 35.4238 3.21083 35.5619C3.07271 35.7 2.99512 35.8874 2.99512 36.0827C2.99512 36.278 3.07271 36.4654 3.21083 36.6035C3.34896 36.7416 3.53629 36.8192 3.73162 36.8192Z" fill="#116FFF"/>
<path d="M14.8531 36.0827C14.8531 35.8874 14.7755 35.7 14.6373 35.5619C14.4992 35.4238 14.3119 35.3462 14.1166 35.3462H8.88738C8.69205 35.3462 8.50472 35.4238 8.3666 35.5619C8.22847 35.7 8.15088 35.8874 8.15088 36.0827C8.15088 36.278 8.22847 36.4654 8.3666 36.6035C8.50472 36.7416 8.69205 36.8192 8.88738 36.8192H14.1166C14.3119 36.8192 14.4992 36.7416 14.6373 36.6035C14.7755 36.4654 14.8531 36.278 14.8531 36.0827Z" fill="#116FFF"/>
<path d="M12.3733 42.9567C12.3733 42.7614 12.2957 42.5741 12.1576 42.4359C12.0194 42.2978 11.8321 42.2202 11.6368 42.2202H3.73162C3.53629 42.2202 3.34896 42.2978 3.21083 42.4359C3.07271 42.5741 2.99512 42.7614 2.99512 42.9567C2.99512 43.1521 3.07271 43.3394 3.21083 43.4775C3.34896 43.6156 3.53629 43.6932 3.73162 43.6932H11.6368C11.8321 43.6932 12.0194 43.6156 12.1576 43.4775C12.2957 43.3394 12.3733 43.1521 12.3733 42.9567V42.9567Z" fill="#116FFF"/>
<path d="M16.4485 42.2202H15.0246C14.8293 42.2202 14.6419 42.2978 14.5038 42.4359C14.3657 42.5741 14.2881 42.7614 14.2881 42.9567C14.2881 43.1521 14.3657 43.3394 14.5038 43.4775C14.6419 43.6156 14.8293 43.6932 15.0246 43.6932H16.4485C16.6438 43.6932 16.8312 43.6156 16.9693 43.4775C17.1074 43.3394 17.185 43.1521 17.185 42.9567C17.185 42.7614 17.1074 42.5741 16.9693 42.4359C16.8312 42.2978 16.6438 42.2202 16.4485 42.2202Z" fill="#116FFF"/>
<path d="M3.73162 47.3757C3.53629 47.3757 3.34896 47.4533 3.21083 47.5914C3.07271 47.7296 2.99512 47.9169 2.99512 48.1122C2.99512 48.3076 3.07271 48.4949 3.21083 48.633C3.34896 48.7711 3.53629 48.8487 3.73162 48.8487H10.4093C10.6046 48.8487 10.7919 48.7711 10.93 48.633C11.0682 48.4949 11.1458 48.3076 11.1458 48.1122C11.1458 47.9169 11.0682 47.7296 10.93 47.5914C10.7919 47.4533 10.6046 47.3757 10.4093 47.3757H3.73162Z" fill="#116FFF"/>
<path d="M13.7971 48.8487H23.8135C24.0088 48.8487 24.1962 48.7711 24.3343 48.633C24.4724 48.4949 24.55 48.3076 24.55 48.1122C24.55 47.9169 24.4724 47.7296 24.3343 47.5914C24.1962 47.4533 24.0088 47.3757 23.8135 47.3757H13.7971C13.6017 47.3757 13.4144 47.4533 13.2763 47.5914C13.1381 47.7296 13.0605 47.9169 13.0605 48.1122C13.0605 48.3076 13.1381 48.4949 13.2763 48.633C13.4144 48.7711 13.6017 48.8487 13.7971 48.8487V48.8487Z" fill="#116FFF"/>
<path d="M49.0565 31.4281C49.0557 30.772 48.7947 30.1429 48.3308 29.6789C47.8668 29.2149 47.2377 28.9539 46.5816 28.9531H38.7334C38.5613 28.9533 38.3952 28.8899 38.2671 28.775C38.139 28.6601 38.0579 28.5019 38.0395 28.3308C37.9324 27.3401 38.0585 26.3382 38.4077 25.405C38.8032 24.3543 39.0055 23.2407 39.0048 22.118V21.4812C39.0036 20.4555 38.5957 19.4723 37.8704 18.7471C37.1452 18.0218 36.1619 17.6139 35.1363 17.6128C34.9603 17.6128 34.7901 17.6758 34.6565 17.7905C34.523 17.9051 34.4349 18.0638 34.4083 18.2378L34.056 20.5376C33.695 22.877 32.7873 25.0983 31.4068 27.0211C31.0472 27.5147 30.5762 27.9165 30.0322 28.1937C29.4881 28.471 28.8863 28.616 28.2756 28.6169H27.3478V26.914C27.3478 26.7186 27.2702 26.5313 27.132 26.3932C26.9939 26.2551 26.8066 26.1775 26.6113 26.1775H19.9601C19.7648 26.1775 19.5775 26.2551 19.4394 26.3932C19.3012 26.5313 19.2236 26.7186 19.2236 26.914V43.9337C19.2236 44.1291 19.3012 44.3164 19.4394 44.4545C19.5775 44.5926 19.7648 44.6702 19.9601 44.6702H26.6115C26.8068 44.6702 26.9942 44.5926 27.1323 44.4545C27.2704 44.3164 27.348 44.1291 27.348 43.9337V42.5112H28.1459C29.9379 42.5107 31.6943 43.0113 33.2168 43.9563C35.009 45.0684 37.0058 45.1605 39.0646 45.1605H45.6132C46.0839 45.1609 46.5459 45.0327 46.9491 44.7898C47.3523 44.5469 47.6816 44.1985 47.9013 43.7821C48.121 43.3658 48.2228 42.8974 48.1957 42.4274C48.1687 41.9574 48.0138 41.5038 47.7478 41.1154C48.0989 40.9157 48.3983 40.6367 48.6222 40.3006C48.846 39.9645 48.9881 39.5806 49.037 39.1798C49.0859 38.7789 49.0403 38.3722 48.9039 37.9921C48.7674 37.612 48.5438 37.2691 48.2511 36.9909C48.5029 36.7468 48.7037 36.455 48.8418 36.1326C48.9799 35.8101 49.0525 35.4635 49.0555 35.1127C49.0585 34.762 48.9917 34.4141 48.8591 34.0894C48.7265 33.7647 48.5307 33.4696 48.283 33.2212C48.5272 32.9907 48.7218 32.7128 48.8548 32.4045C48.9878 32.0962 49.0564 31.7639 49.0565 31.4281V31.4281ZM25.875 43.1972H20.6966V27.6505H25.875V43.1972ZM46.4618 37.7435C46.7593 37.7435 47.0446 37.8617 47.2549 38.0721C47.4653 38.2824 47.5835 38.5677 47.5835 38.8652C47.5835 39.1627 47.4653 39.448 47.2549 39.6584C47.0446 39.8687 46.7593 39.9869 46.4618 39.9869H42.6884C42.4931 39.9869 42.3057 40.0645 42.1676 40.2026C42.0295 40.3408 41.9519 40.5281 41.9519 40.7234C41.9519 40.9188 42.0295 41.1061 42.1676 41.2442C42.3057 41.3823 42.4931 41.4599 42.6884 41.4599H45.6138C45.761 41.4584 45.9071 41.4861 46.0436 41.5413C46.1801 41.5966 46.3043 41.6784 46.409 41.782C46.5136 41.8856 46.5967 42.0089 46.6534 42.1448C46.7101 42.2807 46.7393 42.4265 46.7393 42.5737C46.7393 42.721 46.7101 42.8668 46.6534 43.0027C46.5967 43.1386 46.5136 43.2619 46.409 43.3654C46.3043 43.469 46.1801 43.5508 46.0436 43.6061C45.9071 43.6614 45.761 43.689 45.6138 43.6875H39.0652C37.2276 43.6875 35.4572 43.6122 33.994 42.7046C32.2383 41.6149 30.2129 41.0376 28.1465 41.0382H27.3486V30.09H28.2765C29.1201 30.0887 29.9515 29.8882 30.703 29.5049C31.4545 29.1216 32.1049 28.5663 32.6012 27.8842C34.1185 25.7717 35.116 23.3311 35.5128 20.7606L35.757 19.1671C36.2661 19.3042 36.7158 19.6052 37.0367 20.0234C37.3577 20.4417 37.5319 20.954 37.5326 21.4812V22.118C37.5331 23.0638 37.3626 24.0019 37.0294 24.887C36.599 26.0363 36.4435 27.2704 36.5752 28.4906C36.6325 29.0227 36.8847 29.5148 37.2832 29.8722C37.6816 30.2295 38.1982 30.4268 38.7334 30.4261H46.5816C46.8454 30.429 47.0974 30.5359 47.2829 30.7235C47.4684 30.9111 47.5725 31.1642 47.5725 31.4281C47.5725 31.6919 47.4684 31.9451 47.2829 32.1327C47.0974 32.3203 46.8454 32.4271 46.5816 32.43H44.9811C44.9459 32.4303 44.9107 32.4331 44.8758 32.4384H43.8447C43.6494 32.4384 43.4621 32.516 43.3239 32.6541C43.1858 32.7922 43.1082 32.9795 43.1082 33.1749C43.1082 33.3702 43.1858 33.5575 43.3239 33.6957C43.4621 33.8338 43.6494 33.9114 43.8447 33.9114H46.4042C46.7149 33.9145 47.0119 34.0402 47.2305 34.2611C47.4492 34.482 47.5718 34.7802 47.5718 35.091C47.5718 35.4017 47.4492 35.6999 47.2305 35.9208C47.0119 36.1417 46.7149 36.2674 46.4042 36.2705H43.8445C43.6491 36.2705 43.4618 36.3481 43.3237 36.4862C43.1856 36.6244 43.108 36.8117 43.108 37.007C43.108 37.2024 43.1856 37.3897 43.3237 37.5278C43.4618 37.6659 43.6491 37.7435 43.8445 37.7435H46.4618V37.7435Z" fill="#2CD696"/>
<path d="M55.2107 16.7893C54.7716 14.6128 53.1785 13.2066 51.152 13.2066C50.2396 13.2066 49.2729 13.5103 48.3277 14.0898C47.3715 13.4828 46.4128 13.1758 45.4728 13.1758C43.4328 13.1758 41.8448 14.5981 41.4278 16.7969C40.8543 19.7859 42.6175 23.7309 47.8491 25.8068C47.864 25.8125 47.8788 25.818 47.8938 25.8229C48.1693 25.9233 48.4714 25.9233 48.7469 25.8229C48.7637 25.8174 48.7802 25.8112 48.796 25.8045C54.0252 23.6862 55.7857 19.7529 55.2115 16.7953C55.2116 16.7935 55.2112 16.7914 55.2107 16.7893ZM48.3183 24.1432C44.1265 22.4173 42.6812 19.3854 43.116 17.1193C43.3761 15.7469 44.2792 14.8943 45.4728 14.8943C46.1908 14.8943 46.9976 15.2134 47.8061 15.8165C47.953 15.9262 48.1312 15.986 48.3145 15.9872C48.4978 15.9884 48.6766 15.931 48.825 15.8233C49.6229 15.2441 50.4492 14.9251 51.1521 14.9251C52.3413 14.9251 53.2511 15.7683 53.5257 17.126C53.958 19.3625 52.5104 22.3822 48.3183 24.1432Z" fill="#2CD696"/>
<path d="M58.9108 3.98932C58.5426 2.16439 57.202 0.985245 55.4952 0.985245C54.6958 1.00551 53.9164 1.23911 53.2377 1.66185C52.4745 1.19601 51.7079 0.960449 50.9522 0.960449C49.2337 0.960449 47.897 2.15297 47.5472 3.99718C47.0753 6.45771 48.5134 9.70017 52.7899 11.3971C52.8046 11.4028 52.8194 11.4082 52.8344 11.4133C53.0901 11.5051 53.3698 11.5051 53.6256 11.4133C53.6425 11.4076 53.6592 11.401 53.6758 11.3946C55.6016 10.6145 57.1034 9.45799 58.0194 8.0504C58.8541 6.76803 59.1709 5.32792 58.9122 3.99521L58.9108 3.98932ZM53.2275 9.72006C50.0145 8.37201 48.9025 6.05178 49.2348 4.31903C49.4297 3.29198 50.0716 2.67884 50.9517 2.67884C51.4887 2.67884 52.0985 2.92213 52.7157 3.38244C52.8626 3.49208 53.0407 3.55186 53.224 3.55305C53.4074 3.55424 53.5862 3.49679 53.7346 3.38907C54.3439 2.94717 54.9691 2.70339 55.4952 2.70339C56.3598 2.70339 57.0227 3.32487 57.2259 4.32566C57.5559 6.03533 56.4421 8.34501 53.2275 9.72006Z" fill="#2CD696"/>
</svg>
