<svg width="48" height="49" viewBox="0 0 48 49" fill="none" xmlns="http://www.w3.org/2000/svg">
<path d="M3.66046 12.7705H0.718262V40.8783H3.66046V12.7705Z" fill="#DCEDFD"/>
<path d="M7.77953 6.74875H4.83734C3.74526 6.74997 2.69827 7.18433 1.92606 7.95655C1.15385 8.72876 0.719482 9.77575 0.718262 10.8678V11.5936H3.66046V10.8678C3.66168 9.77575 4.09604 8.72876 4.86825 7.95655C5.64047 7.18433 6.68746 6.74997 7.77953 6.74875Z" fill="#DCEDFD"/>
<path d="M3.66046 43.9185V41.8589H0.718262V43.9185C0.719482 45.0105 1.15385 46.0575 1.92606 46.8297C2.69827 47.602 3.74526 48.0363 4.83734 48.0375H7.77953C6.68746 48.0363 5.64047 47.602 4.86825 46.8297C4.09604 46.0575 3.66168 45.0105 3.66046 43.9185Z" fill="#DCEDFD"/>
<path d="M20.2031 5.65164H4.51137C3.31529 5.65299 2.16859 6.12873 1.32284 6.97448C0.477087 7.82023 0.0013498 8.96693 0 10.163V44.4886C0.00132389 45.6847 0.477052 46.8314 1.32281 47.6772C2.16857 48.5229 3.31528 48.9987 4.51137 49H20.2031C21.3992 48.9986 22.5459 48.5229 23.3916 47.6772C24.2374 46.8314 24.7131 45.6847 24.7144 44.4886V32.7198H23.5376V40.7618H1.17688V12.7129H17.1628C17.3189 12.7129 17.4685 12.6509 17.5789 12.5406C17.6893 12.4302 17.7513 12.2805 17.7513 12.1245C17.7513 11.9684 17.6893 11.8187 17.5789 11.7084C17.4685 11.598 17.3189 11.536 17.1628 11.536H1.17688V10.163C1.17786 9.27895 1.52949 8.43138 2.15462 7.80626C2.77974 7.18113 3.62731 6.82951 4.51137 6.82852H20.2031C21.0871 6.82951 21.9347 7.18113 22.5598 7.80626C23.185 8.43138 23.5366 9.27895 23.5376 10.163V11.536H22.1645C22.0085 11.536 21.8588 11.598 21.7485 11.7084C21.6381 11.8187 21.5761 11.9684 21.5761 12.1245C21.5761 12.2805 21.6381 12.4302 21.7485 12.5406C21.8588 12.6509 22.0085 12.7129 22.1645 12.7129H23.5376V22.4064H24.7144V10.163C24.7131 8.96694 24.2373 7.82026 23.3916 6.97451C22.5458 6.12876 21.3991 5.65302 20.2031 5.65164ZM23.5376 41.9387V44.4886C23.5366 45.3727 23.185 46.2203 22.5599 46.8454C21.9347 47.4705 21.0871 47.8222 20.2031 47.8231H4.51137C3.6273 47.8222 2.77972 47.4705 2.15459 46.8454C1.52946 46.2203 1.17784 45.3727 1.17688 44.4886V41.9387H23.5376Z" fill="#2691F4"/>
<path d="M20.7728 12.1244C20.7728 11.9684 20.7108 11.8187 20.6005 11.7084C20.4901 11.598 20.3404 11.536 20.1844 11.536H19.0943C18.9382 11.536 18.7886 11.598 18.6782 11.7084C18.5679 11.8187 18.5059 11.9684 18.5059 12.1244C18.5059 12.2805 18.5679 12.4302 18.6782 12.5405C18.7886 12.6509 18.9382 12.7129 19.0943 12.7129H20.1844C20.3404 12.7129 20.4901 12.6509 20.6005 12.5405C20.7108 12.4302 20.7728 12.2805 20.7728 12.1244Z" fill="#2691F4"/>
<path d="M12.3571 46.9404C12.7645 46.9404 13.1627 46.8196 13.5014 46.5933C13.8401 46.367 14.104 46.0454 14.2599 45.669C14.4158 45.2927 14.4566 44.8786 14.3771 44.4791C14.2976 44.0796 14.1015 43.7126 13.8135 43.4246C13.5254 43.1365 13.1585 42.9404 12.7589 42.8609C12.3594 42.7815 11.9453 42.8222 11.569 42.9781C11.1927 43.134 10.871 43.398 10.6447 43.7367C10.4184 44.0754 10.2976 44.4736 10.2976 44.8809C10.2982 45.4269 10.5154 45.9504 10.9015 46.3365C11.2876 46.7226 11.8111 46.9398 12.3571 46.9404ZM12.3571 43.9982C12.5317 43.9982 12.7024 44.05 12.8475 44.147C12.9927 44.244 13.1058 44.3818 13.1726 44.5431C13.2394 44.7044 13.2569 44.8819 13.2228 45.0531C13.1888 45.2243 13.1047 45.3816 12.9813 45.505C12.8578 45.6285 12.7006 45.7125 12.5293 45.7466C12.3581 45.7806 12.1807 45.7632 12.0194 45.6964C11.8581 45.6296 11.7202 45.5164 11.6232 45.3713C11.5263 45.2261 11.4745 45.0555 11.4745 44.8809C11.4747 44.6469 11.5678 44.4225 11.7333 44.257C11.8988 44.0916 12.1231 43.9985 12.3571 43.9982Z" fill="#2691F4"/>
<path d="M2.98138 17.6656H6.27664C6.43271 17.6656 6.58238 17.6036 6.69273 17.4933C6.80309 17.3829 6.86508 17.2332 6.86508 17.0772C6.86508 16.9211 6.80309 16.7714 6.69273 16.6611C6.58238 16.5507 6.43271 16.4887 6.27664 16.4887H2.98138C2.82532 16.4887 2.67565 16.5507 2.56529 16.6611C2.45494 16.7714 2.39294 16.9211 2.39294 17.0772C2.39294 17.2332 2.45494 17.3829 2.56529 17.4933C2.67565 17.6036 2.82532 17.6656 2.98138 17.6656Z" fill="#2691F4"/>
<path d="M11.1018 16.4887H8.98346C8.82739 16.4887 8.67772 16.5507 8.56737 16.6611C8.45702 16.7714 8.39502 16.9211 8.39502 17.0772C8.39502 17.2332 8.45702 17.3829 8.56737 17.4933C8.67772 17.6036 8.82739 17.6656 8.98346 17.6656H11.1018C11.2579 17.6656 11.4076 17.6036 11.5179 17.4933C11.6283 17.3829 11.6903 17.2332 11.6903 17.0772C11.6903 16.9211 11.6283 16.7714 11.5179 16.6611C11.4076 16.5507 11.2579 16.4887 11.1018 16.4887Z" fill="#2691F4"/>
<path d="M18.2024 17.6656C18.3584 17.6656 18.5081 17.6036 18.6185 17.4933C18.7288 17.3829 18.7908 17.2332 18.7908 17.0772C18.7908 16.9211 18.7288 16.7714 18.6185 16.6611C18.5081 16.5507 18.3584 16.4887 18.2024 16.4887H14.5148C14.3588 16.4887 14.2091 16.5507 14.0987 16.6611C13.9884 16.7714 13.9264 16.9211 13.9264 17.0772C13.9264 17.2332 13.9884 17.3829 14.0987 17.4933C14.2091 17.6036 14.3588 17.6656 14.5148 17.6656H18.2024Z" fill="#2691F4"/>
<path d="M2.98138 23.1577H8.6304C8.78646 23.1577 8.93613 23.0957 9.04649 22.9854C9.15684 22.875 9.21884 22.7253 9.21884 22.5693C9.21884 22.4132 9.15684 22.2635 9.04649 22.1532C8.93613 22.0428 8.78646 21.9808 8.6304 21.9808H2.98138C2.82532 21.9808 2.67565 22.0428 2.56529 22.1532C2.45494 22.2635 2.39294 22.4132 2.39294 22.5693C2.39294 22.7253 2.45494 22.875 2.56529 22.9854C2.67565 23.0957 2.82532 23.1577 2.98138 23.1577Z" fill="#2691F4"/>
<path d="M13.2596 21.9808H11.3373C11.1813 21.9808 11.0316 22.0428 10.9213 22.1532C10.8109 22.2635 10.7489 22.4132 10.7489 22.5693C10.7489 22.7253 10.8109 22.875 10.9213 22.9854C11.0316 23.0957 11.1813 23.1577 11.3373 23.1577H13.2596C13.4156 23.1577 13.5653 23.0957 13.6757 22.9854C13.786 22.875 13.848 22.7253 13.848 22.5693C13.848 22.4132 13.786 22.2635 13.6757 22.1532C13.5653 22.0428 13.4156 21.9808 13.2596 21.9808Z" fill="#2691F4"/>
<path d="M2.98138 28.6498H4.39364C4.5497 28.6498 4.69937 28.5878 4.80973 28.4775C4.92008 28.3671 4.98208 28.2174 4.98208 28.0614C4.98208 27.9053 4.92008 27.7556 4.80973 27.6453C4.69937 27.5349 4.5497 27.4729 4.39364 27.4729H2.98138C2.82532 27.4729 2.67565 27.5349 2.56529 27.6453C2.45494 27.7556 2.39294 27.9053 2.39294 28.0614C2.39294 28.2174 2.45494 28.3671 2.56529 28.4775C2.67565 28.5878 2.82532 28.6498 2.98138 28.6498Z" fill="#2691F4"/>
<path d="M11.867 28.0614C11.867 27.9053 11.805 27.7556 11.6947 27.6453C11.5843 27.5349 11.4346 27.4729 11.2786 27.4729H7.10065C6.94458 27.4729 6.79491 27.5349 6.68456 27.6453C6.5742 27.7556 6.51221 27.9053 6.51221 28.0614C6.51221 28.2174 6.5742 28.3671 6.68456 28.4775C6.79491 28.5878 6.94458 28.6498 7.10065 28.6498H11.2786C11.4346 28.6498 11.5843 28.5878 11.6947 28.4775C11.805 28.3671 11.867 28.2174 11.867 28.0614Z" fill="#2691F4"/>
<path d="M9.88574 33.5533C9.88574 33.3973 9.82374 33.2476 9.71339 33.1373C9.60303 33.0269 9.45336 32.9649 9.2973 32.9649H2.98138C2.82532 32.9649 2.67565 33.0269 2.56529 33.1373C2.45494 33.2476 2.39294 33.3973 2.39294 33.5533C2.39294 33.7094 2.45494 33.8591 2.56529 33.9694C2.67565 34.0798 2.82532 34.1418 2.98138 34.1418H9.2973C9.45336 34.1418 9.60303 34.0798 9.71339 33.9694C9.82374 33.8591 9.88574 33.7094 9.88574 33.5533Z" fill="#2691F4"/>
<path d="M13.1417 32.9649H12.0041C11.848 32.9649 11.6984 33.0269 11.588 33.1373C11.4776 33.2476 11.4156 33.3973 11.4156 33.5533C11.4156 33.7094 11.4776 33.8591 11.588 33.9694C11.6984 34.0798 11.848 34.1418 12.0041 34.1418H13.1417C13.2978 34.1418 13.4475 34.0798 13.5578 33.9694C13.6682 33.8591 13.7302 33.7094 13.7302 33.5533C13.7302 33.3973 13.6682 33.2476 13.5578 33.1373C13.4475 33.0269 13.2978 32.9649 13.1417 32.9649Z" fill="#2691F4"/>
<path d="M2.98138 37.084C2.82532 37.084 2.67565 37.146 2.56529 37.2563C2.45494 37.3667 2.39294 37.5164 2.39294 37.6724C2.39294 37.8285 2.45494 37.9782 2.56529 38.0885C2.67565 38.1989 2.82532 38.2609 2.98138 38.2609H8.31657C8.47263 38.2609 8.6223 38.1989 8.73266 38.0885C8.84301 37.9782 8.905 37.8285 8.905 37.6724C8.905 37.5164 8.84301 37.3667 8.73266 37.2563C8.6223 37.146 8.47263 37.084 8.31657 37.084H2.98138Z" fill="#2691F4"/>
<path d="M11.0235 38.2609H19.0263C19.1823 38.2609 19.332 38.1989 19.4424 38.0885C19.5527 37.9782 19.6147 37.8285 19.6147 37.6724C19.6147 37.5164 19.5527 37.3667 19.4424 37.2563C19.332 37.146 19.1823 37.084 19.0263 37.084H11.0235C10.8674 37.084 10.7178 37.146 10.6074 37.2563C10.4971 37.3667 10.4351 37.5164 10.4351 37.6724C10.4351 37.8285 10.4971 37.9782 10.6074 38.0885C10.7178 38.1989 10.8674 38.2609 11.0235 38.2609Z" fill="#2691F4"/>
<path d="M39.1944 24.3424C39.1939 23.8182 38.9853 23.3156 38.6146 22.9449C38.2439 22.5742 37.7414 22.3656 37.2171 22.365H30.9467C30.8092 22.3652 30.6765 22.3145 30.5741 22.2227C30.4718 22.1309 30.407 22.0045 30.3923 21.8678C30.3067 21.0763 30.4075 20.2758 30.6865 19.5302C31.0025 18.6907 31.1641 17.801 31.1635 16.904V16.3952C31.1626 15.5758 30.8367 14.7902 30.2572 14.2107C29.6778 13.6313 28.8922 13.3054 28.0728 13.3045C27.9321 13.3045 27.7961 13.3549 27.6894 13.4465C27.5827 13.5381 27.5124 13.6649 27.4911 13.8039L27.2096 15.6413C26.9212 17.5104 26.196 19.2852 25.093 20.8214C24.8057 21.2158 24.4294 21.5368 23.9948 21.7583C23.5601 21.9798 23.0792 22.0957 22.5913 22.0964H21.85V20.7358C21.85 20.5797 21.788 20.4301 21.6777 20.3197C21.5673 20.2094 21.4176 20.1474 21.2616 20.1474H15.9476C15.7915 20.1474 15.6418 20.2094 15.5315 20.3197C15.4211 20.4301 15.3591 20.5797 15.3591 20.7358V34.3339C15.3591 34.49 15.4211 34.6397 15.5315 34.75C15.6418 34.8604 15.7915 34.9224 15.9476 34.9224H21.2618C21.4178 34.9224 21.5675 34.8604 21.6779 34.75C21.7882 34.6397 21.8502 34.49 21.8502 34.3339V33.1974H22.4877C23.9194 33.197 25.3227 33.597 26.5392 34.352C27.971 35.2405 29.5664 35.3141 31.2113 35.3141H36.4434C36.8195 35.3144 37.1886 35.212 37.5107 35.0179C37.8329 34.8238 38.0959 34.5455 38.2715 34.2128C38.447 33.8802 38.5284 33.5059 38.5068 33.1304C38.4852 32.755 38.3614 32.3925 38.1489 32.0822C38.4294 31.9227 38.6686 31.6997 38.8475 31.4312C39.0263 31.1627 39.1398 30.856 39.1789 30.5357C39.218 30.2154 39.1816 29.8905 39.0725 29.5868C38.9635 29.2831 38.7849 29.0092 38.551 28.7869C38.7522 28.5918 38.9126 28.3587 39.0229 28.1011C39.1333 27.8435 39.1913 27.5665 39.1937 27.2863C39.1961 27.0061 39.1427 26.7282 39.0368 26.4687C38.9308 26.2093 38.7744 25.9735 38.5765 25.775C38.7716 25.5909 38.9271 25.3689 39.0333 25.1225C39.1396 24.8762 39.1944 24.6107 39.1944 24.3424ZM20.6733 33.7455H16.536V21.3242H20.6733V33.7455ZM37.1214 29.3882C37.3591 29.3882 37.587 29.4826 37.7551 29.6507C37.9232 29.8188 38.0176 30.0467 38.0176 30.2844C38.0176 30.5221 37.9232 30.75 37.7551 30.9181C37.587 31.0862 37.3591 31.1806 37.1214 31.1806H34.1066C33.9505 31.1806 33.8009 31.2426 33.6905 31.353C33.5802 31.4633 33.5182 31.613 33.5182 31.769C33.5182 31.9251 33.5802 32.0748 33.6905 32.1851C33.8009 32.2955 33.9505 32.3575 34.1066 32.3575H36.4439C36.5615 32.3562 36.6783 32.3783 36.7873 32.4225C36.8964 32.4667 36.9956 32.532 37.0792 32.6148C37.1628 32.6975 37.2292 32.7961 37.2745 32.9046C37.3198 33.0132 37.3431 33.1297 37.3431 33.2473C37.3431 33.365 37.3198 33.4815 37.2745 33.5901C37.2292 33.6986 37.1628 33.7972 37.0792 33.8799C36.9956 33.9627 36.8964 34.028 36.7873 34.0722C36.6783 34.1163 36.5615 34.1385 36.4439 34.1372H31.2118C29.7436 34.1372 28.3291 34.0771 27.1601 33.3519C25.7574 32.4813 24.1391 32.0201 22.4882 32.0205H21.8507V23.2734H22.592C23.266 23.2723 23.9303 23.1121 24.5307 22.8058C25.1311 22.4996 25.6507 22.0559 26.0473 21.511C27.2596 19.8232 28.0566 17.8732 28.3735 15.8195L28.5687 14.5463C28.9754 14.6559 29.3347 14.8963 29.5911 15.2305C29.8475 15.5647 29.9868 15.974 29.9873 16.3952V16.904C29.9877 17.6596 29.8515 18.4091 29.5852 19.1163C29.2414 20.0346 29.1171 21.0206 29.2224 21.9955C29.2682 22.4206 29.4697 22.8138 29.788 23.0993C30.1064 23.3848 30.5191 23.5424 30.9467 23.5419H37.2171C37.4279 23.5442 37.6292 23.6296 37.7775 23.7794C37.9257 23.9293 38.0088 24.1316 38.0088 24.3424C38.0088 24.5532 37.9257 24.7555 37.7775 24.9053C37.6292 25.0552 37.4279 25.1406 37.2171 25.1429H35.9384C35.9102 25.1431 35.8821 25.1454 35.8543 25.1496H35.0305C34.8744 25.1496 34.7247 25.2116 34.6144 25.3219C34.504 25.4323 34.442 25.582 34.442 25.738C34.442 25.8941 34.504 26.0438 34.6144 26.1541C34.7247 26.2645 34.8744 26.3265 35.0305 26.3265H37.0754C37.3237 26.329 37.5609 26.4294 37.7356 26.6059C37.9103 26.7823 38.0082 27.0206 38.0082 27.2689C38.0082 27.5172 37.9103 27.7555 37.7356 27.9319C37.5609 28.1084 37.3237 28.2088 37.0754 28.2113H35.0303C34.8742 28.2113 34.7245 28.2733 34.6142 28.3837C34.5038 28.494 34.4418 28.6437 34.4418 28.7998C34.4418 28.9558 34.5038 29.1055 34.6142 29.2159C34.7245 29.3262 34.8742 29.3882 35.0303 29.3882H37.1214Z" fill="#2CD696"/>
<path d="M44.1111 12.6468C43.7603 10.9078 42.4875 9.78432 40.8684 9.78432C40.1394 9.78432 39.3671 10.027 38.6119 10.49C37.8479 10.005 37.0819 9.7597 36.3309 9.7597C34.701 9.7597 33.4323 10.8961 33.0991 12.6529C32.6409 15.0409 34.0496 18.1928 38.2295 19.8514C38.2414 19.8559 38.2532 19.8604 38.2652 19.8643C38.4853 19.9445 38.7267 19.9445 38.9468 19.8643C38.9602 19.8599 38.9734 19.855 38.986 19.8496C43.164 18.1571 44.5705 15.0146 44.1117 12.6516C44.1118 12.6501 44.1115 12.6485 44.1111 12.6468ZM38.6043 18.5223C35.2552 17.1433 34.1005 14.7209 34.4479 12.9104C34.6557 11.8139 35.3772 11.1327 36.3309 11.1327C36.9045 11.1327 37.5492 11.3877 38.1952 11.8696C38.3125 11.9572 38.4548 12.0049 38.6013 12.0059C38.7477 12.0069 38.8907 11.961 39.0092 11.8749C39.6467 11.4122 40.3069 11.1573 40.8685 11.1573C41.8186 11.1573 42.5455 11.831 42.7649 12.9158C43.1103 14.7027 41.9537 17.1153 38.6043 18.5223Z" fill="#2CD696"/>
<path d="M47.0673 2.41996C46.7731 0.961902 45.702 0.0198108 44.3383 0.0198108C43.6997 0.0359992 43.077 0.222636 42.5347 0.56039C41.925 0.188202 41.3125 0 40.7086 0C39.3356 0 38.2677 0.952781 37.9882 2.42623C37.6112 4.39211 38.7601 6.98271 42.1769 8.33848C42.1887 8.34305 42.2005 8.34737 42.2125 8.35142C42.4168 8.42478 42.6403 8.42478 42.8446 8.35142C42.8581 8.34691 42.8715 8.34162 42.8847 8.33652C44.4234 7.71326 45.6233 6.78922 46.3551 5.66461C47.022 4.64004 47.2751 3.48944 47.0684 2.42466L47.0673 2.41996ZM42.5265 6.9986C39.9595 5.92156 39.071 4.06778 39.3365 2.68338C39.4922 1.8628 40.0051 1.37293 40.7083 1.37293C41.1373 1.37293 41.6246 1.56731 42.1177 1.93508C42.235 2.02268 42.3773 2.07044 42.5238 2.07139C42.6702 2.07235 42.8132 2.02644 42.9317 1.94038C43.4185 1.58731 43.918 1.39254 44.3383 1.39254C45.0292 1.39254 45.5588 1.88909 45.7212 2.68868C45.9848 4.05464 45.0949 5.89999 42.5265 6.9986Z" fill="#2CD696"/>
</svg>
