<svg width="65" height="64" viewBox="0 0 65 64" fill="none" xmlns="http://www.w3.org/2000/svg">
<path d="M11.1326 1.54716H6.46463C5.81638 1.54446 5.17405 1.67042 4.57484 1.91776C3.97563 2.1651 3.43147 2.5289 2.97388 2.98807C2.5163 3.44725 2.15439 3.99267 1.90912 4.59272C1.66385 5.19278 1.54011 5.83555 1.54506 6.48378V32.1331H6.21247V6.48378C6.20752 5.8355 6.33128 5.19269 6.57658 4.59259C6.82188 3.9925 7.18384 3.44705 7.64149 2.98787C8.09914 2.52869 8.64337 2.1649 9.24264 1.9176C9.84192 1.67029 10.4843 1.54438 11.1326 1.54716V1.54716Z" fill="#DCEDFD"/>
<path d="M6.21233 37.5835V33.5737H1.54492V37.5835C1.54492 40.3279 3.71964 42.6243 6.46448 42.6243H11.1325C8.38748 42.6243 6.21233 40.3279 6.21233 37.5835Z" fill="#DCEDFD"/>
<path d="M48.9658 0H6.00337C4.41183 0.00180548 2.88598 0.634803 1.76054 1.76014C0.635098 2.88548 0.00195622 4.41126 0 6.0028V37.4523C0.00165524 39.044 0.63466 40.5701 1.76013 41.6957C2.8856 42.8213 4.41162 43.4545 6.00337 43.4563H26.6318V52.7931H16.8453C16.6191 52.7931 16.4022 52.883 16.2422 53.0429C16.0823 53.2029 15.9924 53.4198 15.9924 53.646C15.9924 53.8722 16.0823 54.0891 16.2422 54.249C16.4022 54.409 16.6191 54.4988 16.8453 54.4988H38.74C38.9662 54.4988 39.1831 54.409 39.3431 54.249C39.503 54.0891 39.5929 53.8722 39.5929 53.646C39.5929 53.4198 39.503 53.2029 39.3431 53.0429C39.1831 52.883 38.9662 52.7931 38.74 52.7931H28.3375V43.4563H43.7398C43.9659 43.4563 44.1829 43.3665 44.3428 43.2066C44.5027 43.0466 44.5926 42.8297 44.5926 42.6035C44.5926 42.3773 44.5027 42.1604 44.3428 42.0005C44.1829 41.8405 43.9659 41.7507 43.7398 41.7507H6.00337C4.86393 41.7494 3.77153 41.2961 2.96584 40.4904C2.16014 39.6847 1.70694 38.5923 1.70566 37.4528V33.7572H43.7398V32.0516H1.70566V6.0028C1.70709 4.86347 2.16036 3.77122 2.96605 2.96564C3.77173 2.16007 4.86404 1.70694 6.00337 1.70566H48.9658C50.1051 1.70694 51.1974 2.16006 52.0031 2.96564C52.8089 3.77121 53.2622 4.86346 53.2636 6.0028V27.81C53.2636 28.0362 53.3535 28.2531 53.5134 28.413C53.6733 28.573 53.8903 28.6628 54.1165 28.6628C54.3426 28.6628 54.5596 28.573 54.7195 28.413C54.8794 28.2531 54.9693 28.0362 54.9693 27.81V6.0028C54.9673 4.41125 54.3341 2.88546 53.2087 1.76013C52.0832 0.634799 50.5573 0.00180541 48.9658 0Z" fill="#116FFF"/>
<path d="M16.6453 25.5061H12.7791C12.5529 25.5061 12.336 25.596 12.1761 25.7559C12.0161 25.9159 11.9263 26.1328 11.9263 26.359C11.9263 26.5851 12.0161 26.8021 12.1761 26.962C12.336 27.1219 12.5529 27.2118 12.7791 27.2118H16.6453C16.8311 27.8744 17.2284 28.4581 17.7768 28.8739C18.3252 29.2896 18.9945 29.5147 19.6826 29.5147C20.3708 29.5147 21.0401 29.2896 21.5885 28.8739C22.1368 28.4581 22.5342 27.8744 22.72 27.2118H42.1678C42.394 27.2118 42.6109 27.1219 42.7709 26.962C42.9308 26.8021 43.0207 26.5851 43.0207 26.359C43.0207 26.1328 42.9308 25.9159 42.7709 25.7559C42.6109 25.596 42.394 25.5061 42.1678 25.5061H22.72C22.5341 24.8436 22.1367 24.26 21.5884 23.8443C21.04 23.4286 20.3708 23.2036 19.6826 23.2036C18.9945 23.2036 18.3253 23.4286 17.7769 23.8443C17.2285 24.26 16.8311 24.8436 16.6453 25.5061V25.5061ZM21.1325 26.359C21.1325 26.6457 21.0474 26.926 20.8881 27.1644C20.7288 27.4029 20.5024 27.5887 20.2375 27.6984C19.9725 27.8081 19.681 27.8369 19.3998 27.7809C19.1186 27.725 18.8602 27.5869 18.6575 27.3841C18.4547 27.1814 18.3166 26.923 18.2607 26.6418C18.2047 26.3606 18.2334 26.0691 18.3432 25.8041C18.4529 25.5392 18.6387 25.3128 18.8772 25.1535C19.1156 24.9942 19.3959 24.9091 19.6826 24.9091C20.067 24.9096 20.4355 25.0625 20.7073 25.3343C20.9791 25.6061 21.132 25.9746 21.1325 26.359Z" fill="#116FFF"/>
<path d="M26.0026 17.1386C26.1404 17.2109 26.2954 17.244 26.4508 17.2345C26.6061 17.225 26.7559 17.1732 26.8838 17.0846L30.5681 14.5366C30.6815 14.4582 30.7742 14.3534 30.8383 14.2312C30.9023 14.109 30.9358 13.9732 30.9358 13.8352C30.9358 13.6973 30.9023 13.5614 30.8383 13.4393C30.7742 13.3171 30.6815 13.2123 30.5681 13.1339L26.8838 10.5857C26.7559 10.4972 26.6061 10.4454 26.4508 10.4359C26.2955 10.4264 26.1406 10.4596 26.0028 10.5318C25.865 10.604 25.7496 10.7126 25.669 10.8457C25.5885 10.9788 25.5459 11.1315 25.5459 11.2871V16.3833C25.5459 16.5389 25.5884 16.6915 25.6689 16.8246C25.7494 16.9578 25.8648 17.0663 26.0026 17.1386V17.1386ZM27.2514 12.914L28.5835 13.8352L27.2514 14.7565V12.914Z" fill="#116FFF"/>
<path d="M27.4732 20.8277C28.8563 20.8277 30.2084 20.4176 31.3584 19.6492C32.5085 18.8808 33.4048 17.7886 33.9341 16.5107C34.4634 15.2329 34.6019 13.8268 34.3321 12.4702C34.0622 11.1137 33.3962 9.8676 32.4182 8.88958C31.4401 7.91156 30.1941 7.24552 28.8375 6.97568C27.481 6.70585 26.0749 6.84434 24.797 7.37364C23.5192 7.90294 22.427 8.79928 21.6586 9.94931C20.8901 11.0993 20.48 12.4514 20.48 13.8345C20.482 15.6886 21.2195 17.4662 22.5305 18.7772C23.8416 20.0882 25.6191 20.8257 27.4732 20.8277ZM27.4732 8.54697C28.519 8.54697 29.5413 8.85708 30.4108 9.43809C31.2803 10.0191 31.9581 10.8449 32.3583 11.8111C32.7585 12.7772 32.8632 13.8404 32.6592 14.8661C32.4551 15.8918 31.9516 16.8339 31.2121 17.5734C30.4726 18.3129 29.5304 18.8165 28.5048 19.0205C27.4791 19.2245 26.4159 19.1198 25.4497 18.7196C24.4836 18.3194 23.6578 17.6417 23.0768 16.7721C22.4958 15.9026 22.1856 14.8803 22.1856 13.8345C22.1872 12.4327 22.7448 11.0886 23.736 10.0974C24.7273 9.10609 26.0713 8.54852 27.4732 8.54697V8.54697Z" fill="#116FFF"/>
<path d="M59.4449 26.9573H47.6658C46.3988 26.9587 45.184 27.4627 44.288 28.3587C43.3921 29.2547 42.8881 30.4695 42.8867 31.7365V59.2209C42.8881 60.488 43.3921 61.7027 44.2881 62.5987C45.184 63.4946 46.3988 63.9986 47.6658 64H59.4449C60.7119 63.9986 61.9267 63.4946 62.8227 62.5987C63.7186 61.7027 64.2226 60.488 64.224 59.2209V31.7365C64.2226 30.4695 63.7187 29.2547 62.8227 28.3587C61.9267 27.4627 60.712 26.9587 59.4449 26.9573V26.9573ZM44.5921 52.3013H49.041C49.2167 52.8 49.5428 53.2319 49.9743 53.5374C50.4059 53.8429 50.9216 54.007 51.4503 54.007C51.979 54.007 52.4947 53.8429 52.9262 53.5374C53.3578 53.2319 53.6839 52.8 53.8595 52.3013H62.5188V55.8632H44.5921V52.3013ZM50.5967 51.4485C50.5967 51.2798 50.6468 51.1149 50.7405 50.9747C50.8342 50.8344 50.9674 50.7251 51.1232 50.6606C51.279 50.596 51.4505 50.5791 51.616 50.612C51.7814 50.6449 51.9333 50.7262 52.0526 50.8454C52.1719 50.9647 52.2531 51.1167 52.286 51.2821C52.3189 51.4475 52.302 51.619 52.2375 51.7748C52.1729 51.9307 52.0636 52.0639 51.9234 52.1576C51.7831 52.2513 51.6183 52.3013 51.4496 52.3013C51.2235 52.301 51.0067 52.2111 50.8468 52.0512C50.6869 51.8914 50.597 51.6746 50.5967 51.4485V51.4485ZM53.8588 50.5956C53.6832 50.097 53.3571 49.6651 52.9255 49.3596C52.494 49.0541 51.9783 48.89 51.4496 48.89C50.9209 48.89 50.4052 49.0541 49.9736 49.3596C49.5421 49.6651 49.216 50.097 49.0403 50.5956H44.5914V33.2763H62.5181V50.5956H53.8588ZM47.6656 28.6636H59.4449C60.231 28.6647 60.987 28.9665 61.5576 29.5072C62.1283 30.0479 62.4704 30.7864 62.5138 31.5714H44.5966C44.6398 30.7863 44.9818 30.0475 45.5525 29.5066C46.1232 28.9658 46.8793 28.6639 47.6656 28.6629V28.6636ZM59.4446 62.2951H47.6656C46.8507 62.2942 46.0695 61.9701 45.4933 61.3939C44.9171 60.8177 44.593 60.0365 44.5921 59.2216V57.5688H62.5181V59.2209C62.5172 60.0357 62.1931 60.8169 61.617 61.3931C61.0408 61.9693 60.2597 62.2934 59.4449 62.2944L59.4446 62.2951Z" fill="#2CD696"/>
<path d="M55.3715 59.0786H51.7396C51.5134 59.0786 51.2964 59.1685 51.1365 59.3284C50.9766 59.4883 50.8867 59.7053 50.8867 59.9314C50.8867 60.1576 50.9766 60.3746 51.1365 60.5345C51.2964 60.6944 51.5134 60.7843 51.7396 60.7843H55.3715C55.5977 60.7843 55.8146 60.6944 55.9745 60.5345C56.1345 60.3746 56.2243 60.1576 56.2243 59.9314C56.2243 59.7053 56.1345 59.4883 55.9745 59.3284C55.8146 59.1685 55.5977 59.0786 55.3715 59.0786V59.0786Z" fill="#1AE5BE"/>
<path d="M56.1549 40.3593L53.17 38.2947C53.042 38.2062 52.8923 38.1544 52.7369 38.1449C52.5816 38.1354 52.4267 38.1686 52.2889 38.2408C52.1511 38.3131 52.0356 38.4216 51.9551 38.5548C51.8746 38.6879 51.832 38.8406 51.832 38.9962V43.125C51.832 43.2806 51.8746 43.4332 51.9552 43.5663C52.0357 43.6995 52.1511 43.808 52.2889 43.8803C52.4267 43.9525 52.5817 43.9857 52.737 43.9762C52.8923 43.9666 53.042 43.9148 53.17 43.8263L56.1549 41.762C56.2683 41.6836 56.361 41.5788 56.4251 41.4566C56.4891 41.3345 56.5226 41.1986 56.5226 41.0607C56.5226 40.9227 56.4891 40.7869 56.4251 40.6647C56.361 40.5426 56.2683 40.4378 56.1549 40.3593V40.3593ZM53.5377 41.4982V40.623L54.1705 41.0606L53.5377 41.4982Z" fill="#2CD696"/>
<path d="M53.5557 35.2327C52.4031 35.2327 51.2764 35.5745 50.318 36.2148C49.3597 36.8552 48.6127 37.7653 48.1716 38.8302C47.7306 39.8951 47.6151 41.0668 47.84 42.1973C48.0649 43.3277 48.6199 44.3661 49.4349 45.1812C50.2499 45.9962 51.2883 46.5512 52.4188 46.7761C53.5493 47.0009 54.721 46.8855 55.7859 46.4444C56.8508 46.0034 57.7609 45.2564 58.4013 44.2981C59.0416 43.3397 59.3834 42.213 59.3834 41.0604C59.3816 39.5153 58.7671 38.034 57.6746 36.9415C56.582 35.849 55.1008 35.2344 53.5557 35.2327V35.2327ZM53.5557 45.1824C52.7405 45.1824 51.9435 44.9406 51.2656 44.4877C50.5878 44.0348 50.0595 43.391 49.7475 42.6378C49.4355 41.8846 49.3538 41.0558 49.5129 40.2562C49.6719 39.4566 50.0645 38.7221 50.641 38.1456C51.2175 37.5692 51.952 37.1766 52.7516 37.0175C53.5511 36.8585 54.3799 36.9401 55.1332 37.2521C55.8864 37.5641 56.5301 38.0924 56.9831 38.7703C57.436 39.4481 57.6777 40.2451 57.6777 41.0604C57.6765 42.1532 57.2418 43.2009 56.469 43.9737C55.6963 44.7464 54.6486 45.1811 53.5557 45.1824V45.1824Z" fill="#2CD696"/>
</svg>
