<svg width="65" height="61" viewBox="0 0 65 61" fill="none" xmlns="http://www.w3.org/2000/svg">
<path d="M10.8333 25.5871H24.9167C25.5158 25.5871 26 25.1017 26 24.5037C26 23.9057 25.5158 23.4204 24.9167 23.4204H10.8333C10.2343 23.4204 9.75 23.9057 9.75 24.5037C9.75 25.1017 10.2343 25.5871 10.8333 25.5871Z" fill="#2CD696"/>
<path d="M39 29.9204H10.8333C10.2342 29.9204 9.75 30.4057 9.75 31.0037C9.75 31.6017 10.2342 32.0871 10.8333 32.0871H39C39.5991 32.0871 40.0833 31.6017 40.0833 31.0037C40.0833 30.4057 39.5991 29.9204 39 29.9204Z" fill="#2CD696"/>
<path d="M39 36.4204H10.8333C10.2342 36.4204 9.75 36.9057 9.75 37.5037C9.75 38.1017 10.2342 38.5871 10.8333 38.5871H39C39.5991 38.5871 40.0833 38.1017 40.0833 37.5037C40.0833 36.9057 39.5991 36.4204 39 36.4204Z" fill="#2CD696"/>
<path d="M58.578 0.746244L21.5908 0.67041C18.0483 0.67041 15.1667 3.55208 15.1667 7.09458V12.6456L6.42417 12.664C2.88167 12.664 0 15.5457 0 19.0882V41.9909C0 45.5334 2.88167 48.414 6.42417 48.414H13V59.2473C13 59.6947 13.2752 60.0967 13.6933 60.2581C13.8201 60.3068 13.9523 60.3307 14.0833 60.3307C14.3823 60.3307 14.6759 60.2061 14.885 59.9764L25.3977 48.4118L43.4092 48.3382C46.9517 48.3382 49.8333 45.4565 49.8333 41.9151V41.7927L55.5317 48.0608C55.7407 48.2905 56.0343 48.4151 56.3333 48.4151C56.4644 48.4151 56.5966 48.3912 56.7233 48.3425C57.1415 48.1811 57.4167 47.7792 57.4167 47.3317V36.4984H58.5758C62.1183 36.4984 65 33.6167 65 30.0753V7.17041C65 3.62899 62.1194 0.747327 58.578 0.746244ZM47.6667 41.914C47.6667 44.2616 45.7568 46.1704 43.4048 46.1704L24.9123 46.2462C24.609 46.2473 24.3187 46.3762 24.115 46.6005L15.1667 56.4447V47.3296C15.1667 46.7316 14.6824 46.2462 14.0833 46.2462H6.42417C4.07658 46.2462 2.16667 44.3363 2.16667 41.9898V19.0871C2.16667 16.7395 4.07658 14.8296 6.42633 14.8296L16.25 14.809C16.2511 14.809 16.2511 14.809 16.2522 14.809L43.4092 14.7527C45.7568 14.7527 47.6667 16.6626 47.6667 19.0102V38.9879V41.914ZM62.8333 30.0732C62.8333 32.4207 60.9234 34.3296 58.5758 34.3296H56.3333C55.7343 34.3296 55.25 34.8149 55.25 35.4129V44.5281L49.8333 38.5697V19.0112C49.8333 15.4687 46.9517 12.5871 43.407 12.5871L17.3333 12.6402V7.09349C17.3333 4.74591 19.2432 2.83599 21.5887 2.83599L58.5748 2.91183C58.5758 2.91183 58.5758 2.91183 58.5769 2.91183C60.9245 2.91183 62.8344 4.82174 62.8344 7.16933V30.0732H62.8333Z" fill="#1786EC"/>
</svg>
