<svg width="47" height="47" viewBox="0 0 47 47" fill="none" xmlns="http://www.w3.org/2000/svg">
<path d="M4.86084 28.2302H9.13252V26.6466H3.27734V43.3569H4.86084V28.2302Z" fill="#DCEDFD"/>
<path d="M29.219 33.2016H28.1248C27.979 33.2034 27.8399 33.2627 27.7375 33.3664C27.6351 33.4701 27.5776 33.61 27.5776 33.7558C27.5776 33.9016 27.6351 34.0414 27.7375 34.1452C27.8399 34.2489 27.979 34.3081 28.1248 34.31H30.6659C30.6698 34.2665 30.6725 34.2227 30.6725 34.1782C30.6724 33.8123 30.5334 33.4601 30.2837 33.1927H29.3147C29.2826 33.1928 29.2506 33.1958 29.219 33.2016Z" fill="#DCEDFD"/>
<path d="M28.1248 37.2135C27.979 37.2154 27.8399 37.2746 27.7375 37.3783C27.6351 37.4821 27.5776 37.622 27.5776 37.7677C27.5776 37.9135 27.6351 38.0534 27.7375 38.1571C27.8399 38.2609 27.979 38.3201 28.1248 38.322H30.6576C30.6871 38.1242 30.6727 37.9223 30.6153 37.7307C30.5579 37.5391 30.459 37.3625 30.3256 37.2135H28.1248Z" fill="#DCEDFD"/>
<path d="M21.9502 29.5078C22.0476 29.9688 22.3006 30.3823 22.6668 30.6788C23.033 30.9753 23.4901 31.1369 23.9613 31.1363H30.6305C30.68 30.9492 30.6858 30.7533 30.6474 30.5636C30.6091 30.374 30.5276 30.1957 30.4093 30.0426C30.2909 29.8895 30.139 29.7657 29.9651 29.6808C29.7913 29.5958 29.6002 29.552 29.4068 29.5528H22.3777C22.234 29.5526 22.0907 29.5376 21.9502 29.5078Z" fill="#DCEDFD"/>
<path d="M11.8247 30.7843H13.0129C13.8617 30.783 14.6982 30.5813 15.4544 30.1957C16.2106 29.81 16.8651 29.2514 17.3646 28.5651C18.9332 26.3813 19.9644 23.8582 20.3745 21.201L20.6652 19.3039C20.8342 19.3336 21 19.3793 21.1603 19.4404C20.9922 18.9984 20.7123 18.6076 20.348 18.3061C19.9836 18.0046 19.5473 17.8028 19.0817 17.7204L18.7909 19.6175C18.3806 22.2747 17.3494 24.7978 15.7808 26.9816C15.2814 27.6678 14.627 28.2264 13.8709 28.612C13.1148 28.9976 12.2784 29.1993 11.4297 29.2007H10.2411L10.2577 30.7843H11.8247Z" fill="#DCEDFD"/>
<path d="M29.4342 41.1044H26.9148C26.8414 41.1035 26.7686 41.1171 26.7005 41.1446C26.6324 41.172 26.5705 41.2127 26.5183 41.2642C26.466 41.3158 26.4246 41.3772 26.3963 41.4449C26.368 41.5126 26.3534 41.5853 26.3534 41.6587C26.3534 41.7321 26.368 41.8047 26.3963 41.8724C26.4246 41.9401 26.466 42.0016 26.5183 42.0531C26.5705 42.1047 26.6324 42.1453 26.7005 42.1728C26.7686 42.2002 26.8414 42.2138 26.9148 42.2129H29.7605C29.7914 42.0155 29.7782 41.8138 29.7218 41.6221C29.6655 41.4305 29.5673 41.2537 29.4345 41.1044H29.4342Z" fill="#DCEDFD"/>
<path d="M37.8862 23.3545C38.0468 22.5077 38.4879 21.8871 39.1009 21.5907C38.7939 21.467 38.4667 21.4008 38.1357 21.3956C37.0785 21.3956 36.2794 22.1462 36.0502 23.3545C35.6739 25.3181 36.9223 27.9443 40.5507 29.425C40.8733 29.2906 41.1762 29.1472 41.4616 28.9967C38.5466 27.4748 37.5435 25.1407 37.8862 23.3545Z" fill="#DCEDFD"/>
<path d="M26.0076 13.6011C26.1683 12.7544 26.6093 12.1337 27.2224 11.8373C26.9153 11.7136 26.5881 11.6475 26.2571 11.6422C25.2 11.6422 24.4009 12.3928 24.1717 13.6011C23.7953 15.5647 25.0437 18.1909 28.6722 19.6716C28.9948 19.5372 29.2976 19.3938 29.5831 19.2433C26.6681 17.7214 25.6649 15.3873 26.0076 13.6011Z" fill="#DCEDFD"/>
<path d="M37.8862 3.85427C38.0468 3.00754 38.4879 2.3869 39.1009 2.09058C38.7939 1.96682 38.4667 1.90066 38.1357 1.89542C37.0785 1.89542 36.2794 2.64604 36.0502 3.85427C35.6739 5.8179 36.9223 8.44411 40.5507 9.9248C40.8733 9.7905 41.1762 9.64702 41.4616 9.49647C38.5466 7.97466 37.5435 5.64045 37.8862 3.85427Z" fill="#DCEDFD"/>
<path d="M11.4343 3.85427C11.5949 3.00754 12.036 2.3869 12.649 2.09058C12.3419 1.96681 12.0147 1.90065 11.6837 1.89542C10.6266 1.89542 9.82753 2.64604 9.59832 3.85427C9.22195 5.8179 10.4704 8.44411 14.0988 9.9248C14.4214 9.7905 14.7242 9.64702 15.0097 9.49647C12.0947 7.97466 11.0916 5.64045 11.4343 3.85427Z" fill="#DCEDFD"/>
<path d="M31.906 30.7658C31.9053 30.1105 31.6446 29.4823 31.1812 29.0189C30.7179 28.5555 30.0896 28.2949 29.4343 28.2941H22.3698C22.1561 28.2944 21.9499 28.2156 21.7908 28.0729C21.6317 27.9302 21.5311 27.7337 21.5082 27.5213C21.3934 26.4583 21.5288 25.3832 21.9035 24.3818C22.314 23.2911 22.524 22.1351 22.5232 20.9697V20.2995C22.522 19.2554 22.1067 18.2545 21.3685 17.5162C20.6302 16.7779 19.6292 16.3626 18.5851 16.3615C18.4315 16.3615 18.2831 16.4165 18.1666 16.5165C18.0501 16.6165 17.9732 16.7549 17.95 16.9067L17.5791 19.3267C17.1961 21.8091 16.2329 24.1662 14.7678 26.2066C14.3772 26.7428 13.8656 27.1793 13.2745 27.4806C12.6834 27.7819 12.0295 27.9394 11.3661 27.9404H10.2576V26.016C10.2576 25.8456 10.1899 25.6821 10.0694 25.5616C9.94885 25.4411 9.78541 25.3734 9.61499 25.3734H2.61621C2.44579 25.3734 2.28235 25.4411 2.16184 25.5616C2.04133 25.6821 1.97363 25.8456 1.97363 26.016V43.9248C1.97363 44.0953 2.04133 44.2587 2.16184 44.3792C2.28235 44.4997 2.44579 44.5674 2.61621 44.5674H9.61499C9.78541 44.5674 9.94885 44.4997 10.0694 44.3792C10.1899 44.2587 10.2576 44.0953 10.2576 43.9248V42.2954H11.2301C13.1404 42.2949 15.0127 42.8285 16.6358 43.8359C18.4922 44.9877 20.5726 45.083 22.719 45.083H28.4162C28.8998 45.0834 29.3739 44.9482 29.7846 44.6928C30.1953 44.4374 30.5262 44.072 30.7397 43.6381C30.9533 43.2041 31.0409 42.719 30.9927 42.2378C30.9445 41.7565 30.7624 41.2984 30.467 40.9155C30.851 40.7245 31.1816 40.4414 31.4293 40.0913C31.6771 39.7413 31.8342 39.3354 31.8867 38.9098C31.9392 38.4842 31.8853 38.0522 31.73 37.6525C31.5747 37.2528 31.3227 36.8979 30.9967 36.6194C31.2793 36.3728 31.5065 36.0692 31.6632 35.7284C31.8199 35.3877 31.9026 35.0176 31.9059 34.6425C31.9092 34.2675 31.8329 33.896 31.6821 33.5526C31.5314 33.2092 31.3095 32.9016 31.0312 32.6502C31.3053 32.4186 31.5256 32.13 31.6767 31.8046C31.8277 31.4791 31.906 31.1247 31.906 30.7658ZM8.97241 43.2823H3.25879V26.6586H8.97241V43.2823ZM29.3082 37.2787C29.6563 37.2787 29.9902 37.417 30.2364 37.6632C30.4826 37.9094 30.6209 38.2433 30.6209 38.5914C30.6209 38.9396 30.4826 39.2735 30.2364 39.5197C29.9902 39.7658 29.6563 39.9041 29.3082 39.9041H25.3379C25.1674 39.9041 25.004 39.9718 24.8835 40.0923C24.763 40.2129 24.6953 40.3763 24.6953 40.5467C24.6953 40.7171 24.763 40.8806 24.8835 41.0011C25.004 41.1216 25.1674 41.1893 25.3379 41.1893H28.4162C28.7602 41.1922 29.0892 41.3309 29.3314 41.5752C29.5737 41.8194 29.7096 42.1496 29.7096 42.4936C29.7096 42.8376 29.5737 43.1677 29.3314 43.412C29.0892 43.6563 28.7602 43.795 28.4162 43.7979H22.719C20.7656 43.7979 18.8819 43.7173 17.3133 42.7439C15.4868 41.6102 13.3798 41.0097 11.2301 41.0102H10.2576V29.2256H11.3663C12.2329 29.2242 13.087 29.0182 13.859 28.6245C14.631 28.2307 15.2992 27.6603 15.8093 26.9597C17.3936 24.7538 18.4352 22.2054 18.8494 19.5213L19.1281 17.7025C19.7241 17.8281 20.2589 18.1545 20.643 18.6273C21.0271 19.1001 21.2371 19.6904 21.2378 20.2995V20.9697C21.2385 21.9808 21.0564 22.9837 20.7003 23.93C20.2549 25.12 20.094 26.3976 20.2304 27.6608C20.2873 28.1882 20.5372 28.6759 20.932 29.0301C21.3269 29.3843 21.8388 29.5799 22.3692 29.5794H29.4338C29.7467 29.5821 30.0458 29.7084 30.2661 29.9306C30.4864 30.1528 30.61 30.4531 30.61 30.766C30.61 31.0789 30.4864 31.3791 30.2661 31.6014C30.0458 31.8236 29.7467 31.9498 29.4338 31.9526H27.7502C27.7159 31.9529 27.6818 31.956 27.648 31.9618H26.5544C26.3839 31.9618 26.2205 32.0295 26.1 32.15C25.9795 32.2705 25.9118 32.4339 25.9118 32.6044C25.9118 32.7748 25.9795 32.9382 26.1 33.0587C26.2205 33.1792 26.3839 33.2469 26.5544 33.2469H29.2473C29.6116 33.2469 29.961 33.3916 30.2186 33.6492C30.4762 33.9068 30.6209 34.2562 30.6209 34.6205C30.6209 34.9848 30.4762 35.3342 30.2186 35.5917C29.961 35.8493 29.6116 35.994 29.2473 35.994H26.5544C26.3839 35.994 26.2205 36.0617 26.1 36.1823C25.9795 36.3028 25.9118 36.4662 25.9118 36.6366C25.9118 36.8071 25.9795 36.9705 26.1 37.091C26.2205 37.2115 26.3839 37.2792 26.5544 37.2792L29.3082 37.2787Z" fill="#2691F4"/>
<path d="M46.3146 3.5954C45.9505 1.79059 44.6315 0.624215 42.955 0.624215C42.182 0.624215 41.3605 0.887397 40.5574 1.38934C39.7448 0.863989 38.9317 0.598053 38.1355 0.598053C36.4478 0.598053 35.1337 1.77737 34.7877 3.60119C34.3077 6.10265 35.7903 9.40706 40.1841 11.1505C40.1953 11.155 40.2067 11.159 40.2182 11.1629C40.4336 11.2416 40.6699 11.2416 40.8854 11.1629C40.8982 11.1585 40.9111 11.1537 40.9237 11.1487C45.3152 9.36952 46.7961 6.0753 46.3156 3.59981L46.3146 3.5954ZM40.5506 9.91277C36.9223 8.432 35.6733 5.80587 36.05 3.84215C36.2795 2.63392 37.0782 1.88339 38.1355 1.88339C38.7634 1.88339 39.4665 2.15998 40.1675 2.68322C40.2774 2.76521 40.4106 2.80991 40.5476 2.81081C40.6847 2.8117 40.8185 2.76873 40.9294 2.68818C41.6312 2.1788 42.3317 1.90955 42.9552 1.90955C44.0084 1.90955 44.8127 2.65201 45.0547 3.84739C45.4293 5.78623 44.1789 8.40134 40.5506 9.91277Z" fill="#2CD696"/>
<path d="M28.3903 20.9784C28.6061 21.0575 28.8429 21.0575 29.0587 20.9784C29.0714 20.9742 29.084 20.9692 29.0965 20.9646C33.4877 19.1855 34.9689 15.8911 34.4882 13.4156L34.4872 13.411C34.1233 11.6062 32.8044 10.44 31.1275 10.44C30.3545 10.44 29.533 10.7033 28.7298 11.2052C27.9171 10.6798 27.1042 10.4139 26.3079 10.4139C24.6202 10.4139 23.3062 11.5932 22.9601 13.417C22.4803 15.9185 23.9627 19.2229 28.3565 20.9662C28.3679 20.9706 28.379 20.9747 28.3903 20.9784ZM24.2227 13.6578C24.4522 12.4497 25.2508 11.699 26.308 11.699C26.936 11.699 27.6391 11.9756 28.3401 12.4989C28.4499 12.5809 28.5831 12.6257 28.7202 12.6266C28.8573 12.6275 28.9911 12.5845 29.102 12.5038C29.8039 11.9944 30.5045 11.7252 31.1279 11.7252C32.181 11.7252 32.9853 12.4677 33.2273 13.663C33.6021 15.6019 32.3517 18.217 28.7234 19.7284C25.0951 18.2477 23.8462 15.6215 24.223 13.6578H24.2227Z" fill="#2CD696"/>
<path d="M19.8627 3.5954C19.4987 1.79059 18.1799 0.624215 16.5031 0.624215C15.7301 0.624215 14.9087 0.887397 14.1056 1.38934C13.293 0.863989 12.48 0.598053 11.6836 0.598053C9.99593 0.598053 8.68186 1.77737 8.33588 3.60119C7.85596 6.10265 9.33839 9.40706 13.7323 11.1505C13.7435 11.155 13.7549 11.159 13.7664 11.1629C13.9818 11.2416 14.2181 11.2416 14.4335 11.1629C14.4464 11.1585 14.4593 11.1537 14.4719 11.1487C18.8633 9.36952 20.3442 6.0753 19.8637 3.59981L19.8627 3.5954ZM14.0988 9.91277C10.4705 8.432 9.22153 5.80587 9.59827 3.84215C9.82776 2.63392 10.6264 1.88339 11.6836 1.88339C12.3116 1.88339 13.0147 2.15998 13.7157 2.68322C13.8256 2.76521 13.9588 2.80991 14.0959 2.81081C14.2329 2.8117 14.3667 2.76873 14.4776 2.68818C15.1793 2.1788 15.8798 1.90955 16.5033 1.90955C17.5565 1.90955 18.3608 2.65201 18.6027 3.84739C18.9773 5.78623 17.727 8.40134 14.0988 9.91277Z" fill="#2CD696"/>
<path d="M46.3145 23.1076C45.9505 21.3028 44.6317 20.1366 42.9548 20.1366C42.1817 20.1366 41.3602 20.3999 40.5571 20.9018C39.7445 20.3764 38.9315 20.1105 38.1352 20.1105C36.4476 20.1105 35.1335 21.2898 34.7874 23.1136C34.3075 25.6151 35.79 28.9195 40.1839 30.6628C40.1949 30.6672 40.206 30.6712 40.2173 30.675C40.4331 30.7541 40.6699 30.7541 40.8857 30.675C40.8984 30.6708 40.911 30.6658 40.9235 30.6611C45.3149 28.8819 46.7958 25.5877 46.3154 23.1122L46.3145 23.1076ZM40.5505 29.425C36.9222 27.9442 35.6732 25.3181 36.05 23.3545C36.2795 22.1462 37.0781 21.3956 38.1354 21.3956C38.7633 21.3956 39.4665 21.6722 40.1674 22.1955C40.2773 22.2774 40.4105 22.3221 40.5476 22.323C40.6847 22.3239 40.8184 22.281 40.9294 22.2004C41.6311 21.691 42.3316 21.4218 42.9551 21.4218C44.0083 21.4218 44.8126 22.1642 45.0546 23.3596C45.4292 25.2985 44.1788 27.9136 40.5505 29.425Z" fill="#2CD696"/>
</svg>
