<svg width="64" height="64" viewBox="0 0 64 64" fill="none" xmlns="http://www.w3.org/2000/svg">
<path d="M6.61914 38.441H12.4359V36.2847H4.46289V59.039H6.61914V38.441Z" fill="#DCEDFD"/>
<path d="M39.7878 45.2106H38.2978C38.0993 45.2132 37.9098 45.2938 37.7704 45.4351C37.6309 45.5763 37.5527 45.7668 37.5527 45.9653C37.5527 46.1638 37.6309 46.3543 37.7704 46.4955C37.9098 46.6368 38.0993 46.7174 38.2978 46.72H41.758C41.7634 46.6607 41.767 46.6011 41.767 46.5405C41.7668 46.0422 41.5776 45.5626 41.2375 45.1985H39.9181C39.8744 45.1987 39.8308 45.2028 39.7878 45.2106V45.2106Z" fill="#DCEDFD"/>
<path d="M38.2978 50.6738C38.0993 50.6764 37.9098 50.757 37.7704 50.8983C37.6309 51.0395 37.5527 51.23 37.5527 51.4285C37.5527 51.627 37.6309 51.8175 37.7704 51.9588C37.9098 52.1 38.0993 52.1806 38.2978 52.1832H41.7468C41.787 51.9138 41.7673 51.6389 41.6891 51.3781C41.611 51.1172 41.4763 50.8767 41.2946 50.6738H38.2978Z" fill="#DCEDFD"/>
<path d="M29.8896 40.1807C30.0223 40.8084 30.3668 41.3715 30.8655 41.7753C31.3641 42.179 31.9865 42.399 32.6281 42.3982H41.7096C41.7771 42.1435 41.7849 41.8767 41.7327 41.6184C41.6804 41.3602 41.5695 41.1174 41.4084 40.909C41.2473 40.7005 41.0403 40.5319 40.8036 40.4162C40.5669 40.3006 40.3067 40.2409 40.0433 40.2419H30.4718C30.2761 40.2417 30.081 40.2212 29.8896 40.1807V40.1807Z" fill="#DCEDFD"/>
<path d="M16.1017 41.919H17.7197C18.8755 41.9172 20.0146 41.6426 21.0443 41.1175C22.074 40.5924 22.9652 39.8316 23.6454 38.8971C25.7813 35.9234 27.1856 32.4878 27.7441 28.8694L28.1398 26.2861C28.37 26.3265 28.5957 26.3888 28.8141 26.472C28.5851 25.8701 28.204 25.3379 27.7079 24.9274C27.2118 24.5169 26.6176 24.2421 25.9836 24.1299L25.5876 26.7131C25.0289 30.3315 23.6247 33.7672 21.4888 36.7409C20.8087 37.6753 19.9176 38.4359 18.888 38.961C17.8585 39.4861 16.7195 39.7607 15.5638 39.7626H13.9453L13.9679 41.919H16.1017Z" fill="#DCEDFD"/>
<path d="M40.0805 55.972H36.6497C36.5498 55.9707 36.4506 55.9893 36.3579 56.0266C36.2652 56.064 36.1809 56.1194 36.1098 56.1896C36.0386 56.2598 35.9822 56.3434 35.9436 56.4356C35.9051 56.5278 35.8853 56.6267 35.8853 56.7267C35.8853 56.8266 35.9051 56.9255 35.9436 57.0177C35.9822 57.1099 36.0386 57.1936 36.1098 57.2638C36.1809 57.334 36.2652 57.3894 36.3579 57.4267C36.4506 57.4641 36.5498 57.4826 36.6497 57.4814H40.5247C40.5668 57.2126 40.5488 56.9379 40.4721 56.6769C40.3953 56.4159 40.2617 56.1752 40.0808 55.972H40.0805Z" fill="#DCEDFD"/>
<path d="M51.5895 31.8019C51.8082 30.6489 52.4088 29.8038 53.2436 29.4001C52.8255 29.2317 52.3799 29.1416 51.9292 29.1345C50.4897 29.1345 49.4016 30.1565 49.0895 31.8019C48.577 34.4758 50.277 38.0519 55.2178 40.0681C55.6571 39.8851 56.0695 39.6899 56.4582 39.4849C52.4888 37.4125 51.1228 34.2341 51.5895 31.8019Z" fill="#DCEDFD"/>
<path d="M35.4146 18.5206C35.6334 17.3676 36.234 16.5225 37.0688 16.1189C36.6507 15.9504 36.2051 15.8604 35.7544 15.8533C34.3149 15.8533 33.2268 16.8753 32.9146 18.5206C32.4021 21.1945 34.1021 24.7706 39.043 26.7869C39.4823 26.6039 39.8946 26.4086 40.2834 26.2036C36.314 24.1313 34.948 20.9529 35.4146 18.5206Z" fill="#DCEDFD"/>
<path d="M51.5895 5.24843C51.8082 4.09543 52.4088 3.2503 53.2436 2.8468C52.8255 2.67828 52.3799 2.5882 51.9292 2.58105C50.4897 2.58105 49.4016 3.60318 49.0895 5.24843C48.577 7.9223 50.277 11.4984 55.2178 13.5147C55.6571 13.3318 56.0695 13.1364 56.4582 12.9314C52.4888 10.8592 51.1228 7.68068 51.5895 5.24843Z" fill="#DCEDFD"/>
<path d="M15.5699 5.24843C15.7887 4.09543 16.3893 3.2503 17.224 2.8468C16.8059 2.67827 16.3603 2.58818 15.9095 2.58105C14.4702 2.58105 13.382 3.60318 13.0699 5.24843C12.5574 7.9223 14.2574 11.4984 19.1983 13.5147C19.6375 13.3318 20.0498 13.1364 20.4387 12.9314C16.4693 10.8592 15.1033 7.68068 15.5699 5.24843Z" fill="#DCEDFD"/>
<path d="M43.4465 41.8938C43.4455 41.0015 43.0905 40.146 42.4596 39.515C41.8286 38.884 40.9731 38.5291 40.0807 38.528H30.461C30.17 38.5284 29.8892 38.4211 29.6726 38.2268C29.456 38.0325 29.3189 37.765 29.2878 37.4757C29.1314 36.0282 29.3158 34.5642 29.826 33.2007C30.385 31.7154 30.6709 30.1413 30.6699 28.5543V27.6418C30.6683 26.2201 30.1028 24.857 29.0975 23.8517C28.0922 22.8464 26.7291 22.2809 25.3074 22.2793C25.0983 22.2793 24.8961 22.3542 24.7374 22.4904C24.5788 22.6266 24.4742 22.8151 24.4425 23.0218L23.9375 26.317C23.4159 29.6974 22.1044 32.9071 20.1094 35.6854C19.5775 36.4156 18.8808 37.01 18.0759 37.4203C17.271 37.8305 16.3807 38.0451 15.4773 38.0464H13.9677V35.4259C13.9677 35.1939 13.8756 34.9713 13.7115 34.8072C13.5474 34.6431 13.3248 34.5509 13.0927 34.5509H3.5625C3.33044 34.5509 3.10788 34.6431 2.94378 34.8072C2.77969 34.9713 2.6875 35.1939 2.6875 35.4259V59.8124C2.6875 60.0445 2.77969 60.267 2.94378 60.4311C3.10788 60.5952 3.33044 60.6874 3.5625 60.6874H13.0927C13.3248 60.6874 13.5474 60.5952 13.7115 60.4311C13.8756 60.267 13.9677 60.0445 13.9677 59.8124V57.5935H15.292C17.8932 57.5929 20.4429 58.3195 22.653 59.6913C25.1809 61.2597 28.0138 61.3896 30.9365 61.3896H38.6944C39.353 61.3901 39.9985 61.206 40.5578 60.8582C41.117 60.5104 41.5676 60.0128 41.8584 59.4219C42.1492 58.831 42.2685 58.1704 42.2029 57.5151C42.1372 56.8598 41.8892 56.236 41.487 55.7146C42.0098 55.4545 42.46 55.069 42.7974 54.5924C43.1348 54.1157 43.3487 53.563 43.4202 52.9834C43.4916 52.4039 43.4183 51.8157 43.2068 51.2714C42.9953 50.7272 42.6523 50.2438 42.2082 49.8645C42.5931 49.5288 42.9024 49.1153 43.1158 48.6513C43.3293 48.1873 43.4419 47.6834 43.4463 47.1727C43.4508 46.662 43.3469 46.1561 43.1416 45.6885C42.9363 45.2209 42.6342 44.802 42.2552 44.4597C42.6285 44.1444 42.9284 43.7514 43.1342 43.3083C43.3399 42.8651 43.4465 42.3824 43.4465 41.8938ZM12.2177 58.9374H4.4375V36.3009H12.2177V58.9374ZM39.909 50.7624C40.3831 50.7624 40.8377 50.9507 41.173 51.286C41.5082 51.6212 41.6965 52.0759 41.6965 52.5499C41.6965 53.024 41.5082 53.4787 41.173 53.8139C40.8377 54.1491 40.3831 54.3374 39.909 54.3374H34.5026C34.2706 54.3374 34.048 54.4296 33.8839 54.5937C33.7198 54.7578 33.6276 54.9804 33.6276 55.2124C33.6276 55.4445 33.7198 55.667 33.8839 55.8311C34.048 55.9952 34.2706 56.0874 34.5026 56.0874H38.6944C39.1628 56.0914 39.6108 56.2802 39.9406 56.6129C40.2705 56.9455 40.4556 57.395 40.4556 57.8635C40.4556 58.332 40.2705 58.7815 39.9406 59.1141C39.6108 59.4468 39.1628 59.6356 38.6944 59.6396H30.9365C28.2766 59.6396 25.7115 59.5298 23.5755 58.2043C21.0884 56.6605 18.2193 55.8429 15.292 55.8435H13.9677V39.7964H15.4775C16.6576 39.7945 17.8206 39.514 18.8718 38.9779C19.9231 38.4417 20.833 37.665 21.5275 36.7109C23.6849 33.7072 25.1032 30.237 25.6672 26.582L26.0467 24.1054C26.8584 24.2764 27.5866 24.721 28.1096 25.3647C28.6326 26.0085 28.9186 26.8124 28.9196 27.6418V28.5543C28.9205 29.9311 28.6725 31.2968 28.1876 32.5854C27.5811 34.2058 27.362 35.9455 27.5478 37.6657C27.6252 38.3838 27.9655 39.0479 28.5032 39.5302C29.0409 40.0125 29.7379 40.2789 30.4603 40.2782H40.08C40.5061 40.2819 40.9134 40.4538 41.2134 40.7564C41.5134 41.059 41.6817 41.4679 41.6817 41.894C41.6817 42.3201 41.5134 42.7289 41.2134 43.0315C40.9134 43.3342 40.5061 43.5061 40.08 43.5098H37.7875C37.7409 43.5103 37.6943 43.5145 37.6484 43.5223H36.1591C35.9271 43.5223 35.7045 43.6145 35.5404 43.7786C35.3763 43.9427 35.2841 44.1652 35.2841 44.3973C35.2841 44.6294 35.3763 44.8519 35.5404 45.016C35.7045 45.1801 35.9271 45.2723 36.1591 45.2723H39.8261C40.3222 45.2723 40.7979 45.4694 41.1487 45.8201C41.4994 46.1709 41.6965 46.6466 41.6965 47.1427C41.6965 47.6387 41.4994 48.1145 41.1487 48.4652C40.7979 48.816 40.3222 49.0131 39.8261 49.0131H36.1591C35.9271 49.0131 35.7045 49.1052 35.5404 49.2693C35.3763 49.4334 35.2841 49.656 35.2841 49.8881C35.2841 50.1201 35.3763 50.3427 35.5404 50.5068C35.7045 50.6709 35.9271 50.7631 36.1591 50.7631L39.909 50.7624Z" fill="#116FFF"/>
<path d="M63.0668 4.89595C62.571 2.43833 60.7749 0.850078 58.492 0.850078C57.4394 0.850078 56.3208 1.20845 55.2272 1.89195C54.1207 1.17658 53.0135 0.814453 51.9293 0.814453C49.6312 0.814453 47.8418 2.42033 47.3705 4.90383C46.717 8.31008 48.7358 12.8097 54.7189 15.1837C54.7342 15.1898 54.7497 15.1953 54.7653 15.2006C55.0586 15.3077 55.3804 15.3077 55.6738 15.2006C55.6913 15.1947 55.7088 15.1881 55.726 15.1813C61.7059 12.7586 63.7224 8.27283 63.0682 4.90195L63.0668 4.89595ZM55.2179 13.4983C50.2773 11.482 48.5765 7.90595 49.0895 5.23195C49.402 3.5867 50.4895 2.5647 51.9293 2.5647C52.7843 2.5647 53.7418 2.94133 54.6963 3.65383C54.8459 3.76547 55.0273 3.82635 55.2139 3.82756C55.4006 3.82878 55.5827 3.77027 55.7338 3.66058C56.6894 2.96695 57.6433 2.60033 58.4923 2.60033C59.9264 2.60033 61.0217 3.61133 61.3512 5.23908C61.8613 7.8792 60.1587 11.4402 55.2179 13.4983Z" fill="#2CD696"/>
<path d="M38.6593 28.5664C38.9531 28.6741 39.2757 28.6741 39.5695 28.5664C39.5868 28.5607 39.6039 28.5539 39.6209 28.5475C45.6004 26.125 47.6174 21.639 46.9629 18.2682L46.9615 18.2619C46.4659 15.8043 44.67 14.2163 42.3865 14.2163C41.334 14.2163 40.2154 14.5748 39.1216 15.2582C38.015 14.5428 36.908 14.1807 35.8238 14.1807C33.5255 14.1807 31.7363 15.7865 31.265 18.27C30.6116 21.6763 32.6303 26.1759 38.6133 28.5498C38.6288 28.5558 38.6439 28.5613 38.6593 28.5664ZM32.9843 18.5979C33.2968 16.9528 34.3843 15.9307 35.8239 15.9307C36.679 15.9307 37.6364 16.3073 38.5909 17.0198C38.7404 17.1315 38.9218 17.1925 39.1085 17.1937C39.2952 17.1949 39.4774 17.1363 39.6284 17.0265C40.5843 16.3329 41.5383 15.9663 42.3871 15.9663C43.8211 15.9663 44.9164 16.9773 45.2459 18.605C45.7563 21.2452 44.0535 24.8062 39.1129 26.8643C34.1723 24.848 32.4716 21.2719 32.9846 18.5979H32.9843Z" fill="#2CD696"/>
<path d="M27.0471 4.89595C26.5514 2.43833 24.7556 0.850078 22.4724 0.850078C21.4198 0.850078 20.3012 1.20845 19.2076 1.89195C18.1011 1.17658 16.994 0.814453 15.9096 0.814453C13.6115 0.814453 11.8221 2.42033 11.351 4.90383C10.6975 8.31008 12.7161 12.8097 18.6994 15.1837C18.7146 15.1898 18.7301 15.1953 18.7458 15.2006C19.0391 15.3077 19.3608 15.3077 19.6541 15.2006C19.6718 15.1947 19.6893 15.1881 19.7064 15.1813C25.6863 12.7586 27.7028 8.27283 27.0485 4.90195L27.0471 4.89595ZM19.1984 13.4983C14.2578 11.482 12.557 7.90595 13.07 5.23195C13.3825 3.5867 14.47 2.5647 15.9096 2.5647C16.7648 2.5647 17.7221 2.94133 18.6768 3.65383C18.8263 3.76547 19.0077 3.82635 19.1944 3.82756C19.3811 3.82878 19.5632 3.77027 19.7143 3.66058C20.6698 2.96695 21.6236 2.60033 22.4726 2.60033C23.9068 2.60033 25.002 3.61133 25.3314 5.23908C25.8415 7.8792 24.1389 11.4402 19.1984 13.4983Z" fill="#2CD696"/>
<path d="M63.0665 31.4658C62.5708 29.0081 60.775 27.4201 58.4915 27.4201C57.4389 27.4201 56.3203 27.7786 55.2267 28.462C54.1202 27.7466 53.013 27.3845 51.9288 27.3845C49.6307 27.3845 47.8413 28.9904 47.37 31.4739C46.7165 34.8801 48.7353 39.3798 54.7184 41.7536C54.7334 41.7596 54.7485 41.7651 54.7639 41.7703C55.0577 41.8779 55.3802 41.8779 55.674 41.7703C55.6914 41.7645 55.7085 41.7578 55.7255 41.7514C61.7054 39.3286 63.7219 34.8429 63.0677 31.472L63.0665 31.4658ZM55.2177 40.0681C50.277 38.0518 48.5763 34.4758 49.0893 31.8019C49.4018 30.1565 50.4893 29.1345 51.929 29.1345C52.784 29.1345 53.7415 29.5111 54.696 30.2236C54.8456 30.3353 55.027 30.3962 55.2137 30.3974C55.4003 30.3986 55.5825 30.3401 55.7335 30.2304C56.6892 29.5368 57.643 29.1701 58.492 29.1701C59.9262 29.1701 61.0214 30.1811 61.3509 31.8089C61.861 34.449 60.1583 38.01 55.2177 40.0681Z" fill="#2CD696"/>
</svg>
