<svg width="84" height="68" viewBox="0 0 84 68" fill="none" xmlns="http://www.w3.org/2000/svg">
<path d="M6.61902 42.441H12.4358V40.2847H4.46277V63.039H6.61902V42.441Z" fill="#DCEDFD"/>
<path d="M39.7875 49.2106H38.2975C38.0991 49.2132 37.9096 49.2938 37.7701 49.4351C37.6307 49.5763 37.5525 49.7668 37.5525 49.9653C37.5525 50.1638 37.6307 50.3543 37.7701 50.4955C37.9096 50.6368 38.0991 50.7174 38.2975 50.72H41.7578C41.7632 50.6607 41.7668 50.6011 41.7668 50.5405C41.7666 50.0422 41.5774 49.5626 41.2373 49.1985H39.9179C39.8742 49.1987 39.8305 49.2028 39.7875 49.2106Z" fill="#DCEDFD"/>
<path d="M38.2975 54.6738C38.0991 54.6764 37.9096 54.757 37.7701 54.8983C37.6307 55.0395 37.5525 55.23 37.5525 55.4285C37.5525 55.627 37.6307 55.8175 37.7701 55.9588C37.9096 56.1 38.0991 56.1806 38.2975 56.1832H41.7465C41.7867 55.9138 41.767 55.6389 41.6889 55.3781C41.6107 55.1172 41.4761 54.8767 41.2944 54.6738H38.2975Z" fill="#DCEDFD"/>
<path d="M29.8895 44.1807C30.0221 44.8084 30.3667 45.3715 30.8654 45.7753C31.364 46.179 31.9864 46.399 32.628 46.3982H41.7095C41.7769 46.1435 41.7848 45.8767 41.7326 45.6184C41.6803 45.3602 41.5694 45.1174 41.4082 44.909C41.2471 44.7005 41.0402 44.5319 40.8035 44.4162C40.5668 44.3006 40.3066 44.2409 40.0432 44.2419H30.4717C30.276 44.2417 30.0809 44.2212 29.8895 44.1807Z" fill="#DCEDFD"/>
<path d="M16.1017 45.919H17.7197C18.8755 45.9172 20.0146 45.6426 21.0443 45.1175C22.074 44.5924 22.9652 43.8316 23.6454 42.8971C25.7813 39.9234 27.1856 36.4878 27.7441 32.8694L28.1398 30.2861C28.37 30.3265 28.5957 30.3888 28.8141 30.472C28.5851 29.8701 28.204 29.3379 27.7079 28.9274C27.2118 28.5169 26.6176 28.2421 25.9836 28.1299L25.5876 30.7131C25.0289 34.3315 23.6247 37.7672 21.4888 40.7409C20.8087 41.6753 19.9176 42.4359 18.888 42.961C17.8585 43.4861 16.7195 43.7607 15.5638 43.7626H13.9453L13.9679 45.919H16.1017Z" fill="#DCEDFD"/>
<path d="M40.0806 59.972H36.6499C36.55 59.9707 36.4508 59.9893 36.3581 60.0266C36.2654 60.064 36.1811 60.1194 36.1099 60.1896C36.0388 60.2598 35.9824 60.3434 35.9438 60.4356C35.9053 60.5278 35.8854 60.6267 35.8854 60.7267C35.8854 60.8266 35.9053 60.9255 35.9438 61.0177C35.9824 61.1099 36.0388 61.1936 36.1099 61.2638C36.1811 61.334 36.2654 61.3894 36.3581 61.4267C36.4508 61.4641 36.55 61.4826 36.6499 61.4814H40.5249C40.567 61.2126 40.549 60.9379 40.4722 60.6769C40.3955 60.4159 40.2619 60.1752 40.081 59.972H40.0806Z" fill="#DCEDFD"/>
<path d="M43.4465 45.8938C43.4455 45.0015 43.0905 44.146 42.4596 43.515C41.8286 42.884 40.9731 42.5291 40.0807 42.528H30.461C30.17 42.5284 29.8892 42.4211 29.6726 42.2268C29.456 42.0325 29.3189 41.765 29.2878 41.4757C29.1314 40.0282 29.3158 38.5642 29.826 37.2007C30.385 35.7154 30.6709 34.1413 30.6699 32.5543V31.6418C30.6683 30.2201 30.1028 28.857 29.0975 27.8517C28.0922 26.8464 26.7291 26.2809 25.3074 26.2793C25.0983 26.2793 24.8961 26.3542 24.7374 26.4904C24.5788 26.6266 24.4742 26.8151 24.4425 27.0218L23.9375 30.317C23.4159 33.6974 22.1044 36.9071 20.1094 39.6854C19.5775 40.4156 18.8808 41.01 18.0759 41.4203C17.271 41.8305 16.3807 42.0451 15.4773 42.0464H13.9677V39.4259C13.9677 39.1939 13.8756 38.9713 13.7115 38.8072C13.5474 38.6431 13.3248 38.5509 13.0927 38.5509H3.5625C3.33044 38.5509 3.10788 38.6431 2.94378 38.8072C2.77969 38.9713 2.6875 39.1939 2.6875 39.4259V63.8124C2.6875 64.0445 2.77969 64.267 2.94378 64.4311C3.10788 64.5952 3.33044 64.6874 3.5625 64.6874H13.0927C13.3248 64.6874 13.5474 64.5952 13.7115 64.4311C13.8756 64.267 13.9677 64.0445 13.9677 63.8124V61.5935H15.292C17.8932 61.5929 20.4429 62.3195 22.653 63.6913C25.1809 65.2597 28.0138 65.3896 30.9365 65.3896H38.6944C39.353 65.3901 39.9985 65.206 40.5578 64.8582C41.117 64.5104 41.5676 64.0128 41.8584 63.4219C42.1492 62.831 42.2685 62.1704 42.2029 61.5151C42.1372 60.8598 41.8892 60.236 41.487 59.7146C42.0098 59.4545 42.46 59.069 42.7974 58.5924C43.1348 58.1157 43.3487 57.563 43.4202 56.9834C43.4916 56.4039 43.4183 55.8157 43.2068 55.2714C42.9953 54.7272 42.6523 54.2438 42.2082 53.8645C42.5931 53.5288 42.9024 53.1153 43.1158 52.6513C43.3293 52.1873 43.4419 51.6834 43.4463 51.1727C43.4508 50.662 43.3469 50.1561 43.1416 49.6885C42.9363 49.2209 42.6342 48.802 42.2552 48.4597C42.6285 48.1444 42.9284 47.7514 43.1342 47.3083C43.3399 46.8651 43.4465 46.3824 43.4465 45.8938ZM12.2177 62.9374H4.4375V40.3009H12.2177V62.9374ZM39.909 54.7624C40.3831 54.7624 40.8377 54.9507 41.173 55.286C41.5082 55.6212 41.6965 56.0758 41.6965 56.5499C41.6965 57.024 41.5082 57.4787 41.173 57.8139C40.8377 58.1491 40.3831 58.3374 39.909 58.3374H34.5026C34.2706 58.3374 34.048 58.4296 33.8839 58.5937C33.7198 58.7578 33.6276 58.9804 33.6276 59.2124C33.6276 59.4445 33.7198 59.667 33.8839 59.8311C34.048 59.9952 34.2706 60.0874 34.5026 60.0874H38.6944C39.1628 60.0914 39.6108 60.2802 39.9406 60.6129C40.2705 60.9455 40.4556 61.395 40.4556 61.8635C40.4556 62.332 40.2705 62.7815 39.9406 63.1141C39.6108 63.4468 39.1628 63.6356 38.6944 63.6396H30.9365C28.2766 63.6396 25.7115 63.5298 23.5755 62.2043C21.0884 60.6605 18.2193 59.8428 15.292 59.8435H13.9677V43.7964H15.4775C16.6576 43.7945 17.8206 43.514 18.8718 42.9779C19.9231 42.4417 20.833 41.665 21.5275 40.7109C23.6849 37.7072 25.1032 34.237 25.6672 30.582L26.0467 28.1054C26.8584 28.2764 27.5866 28.721 28.1096 29.3647C28.6326 30.0085 28.9186 30.8124 28.9196 31.6418V32.5543C28.9205 33.9311 28.6725 35.2968 28.1876 36.5854C27.5811 38.2058 27.362 39.9455 27.5478 41.6657C27.6252 42.3838 27.9655 43.0479 28.5032 43.5302C29.0409 44.0125 29.7379 44.2789 30.4603 44.2782H40.08C40.5061 44.2819 40.9134 44.4538 41.2134 44.7564C41.5134 45.059 41.6817 45.4679 41.6817 45.894C41.6817 46.3201 41.5134 46.7289 41.2134 47.0315C40.9134 47.3342 40.5061 47.5061 40.08 47.5098H37.7875C37.7409 47.5103 37.6943 47.5145 37.6484 47.5223H36.1591C35.9271 47.5223 35.7045 47.6145 35.5404 47.7786C35.3763 47.9427 35.2841 48.1652 35.2841 48.3973C35.2841 48.6294 35.3763 48.8519 35.5404 49.016C35.7045 49.1801 35.9271 49.2723 36.1591 49.2723H39.8261C40.3222 49.2723 40.7979 49.4694 41.1487 49.8201C41.4994 50.1709 41.6965 50.6466 41.6965 51.1427C41.6965 51.6387 41.4994 52.1145 41.1487 52.4652C40.7979 52.816 40.3222 53.0131 39.8261 53.0131H36.1591C35.9271 53.0131 35.7045 53.1052 35.5404 53.2693C35.3763 53.4334 35.2841 53.656 35.2841 53.8881C35.2841 54.1201 35.3763 54.3427 35.5404 54.5068C35.7045 54.6709 35.9271 54.7631 36.1591 54.7631L39.909 54.7624Z" fill="#1786EC"/>
<path d="M70.9282 23.4604C71.1531 23.4088 71.3893 23.4617 71.5707 23.6043C71.7521 23.747 71.8592 23.964 71.8621 24.1947V33.3794C71.8474 34.6184 71.0909 35.7277 69.9428 36.1939C69.2206 36.5102 70.4609 36.4139 43.0345 36.4139C41.3631 36.4031 40.0108 35.0508 40 33.3794V22.0001C40 20.3242 41.3586 18.9656 43.0345 18.9656H66.6329C66.8636 18.9684 67.0807 19.0756 67.2233 19.2569C67.366 19.4383 67.4189 19.6745 67.3672 19.8994C67.1679 20.8918 67.4782 21.918 68.1939 22.6337C68.9096 23.3494 69.9359 23.6597 70.9282 23.4604Z" fill="#FF4D00"/>
<path d="M50.6206 33.3796C50.2016 33.3796 49.8619 33.0399 49.8619 32.6209V22.7589C49.8619 22.3399 50.2016 22.0002 50.6206 22.0002C51.0395 22.0002 51.3792 22.3399 51.3792 22.7589V32.6209C51.3792 33.0399 51.0395 33.3796 50.6206 33.3796Z" fill="white"/>
<path d="M56.6896 33.3795H55.931C55.5776 33.3797 55.2709 33.1359 55.1913 32.7915L52.9155 22.9295C52.8212 22.521 53.0759 22.1134 53.4844 22.0191C53.8929 21.9249 54.3005 22.1796 54.3948 22.5881L56.3103 30.8904L58.2258 22.5881C58.2868 22.3238 58.4841 22.1122 58.7435 22.0329C59.0028 21.9536 59.2848 22.0186 59.4831 22.2036C59.6815 22.3885 59.7661 22.6652 59.7051 22.9295L57.4293 32.7915C57.3498 33.1359 57.043 33.3797 56.6896 33.3795Z" fill="white"/>
<path d="M65.7927 33.3796H61.9996C61.5806 33.3796 61.241 33.0399 61.241 32.6209V22.7589C61.241 22.3399 61.5806 22.0002 61.9996 22.0002C62.4186 22.0002 62.7582 22.3399 62.7582 22.7589V31.8623H65.7927C66.2117 31.8623 66.5513 32.202 66.5513 32.6209C66.5513 33.0399 66.2117 33.3796 65.7927 33.3796Z" fill="white"/>
<path d="M47.586 33.38H43.7929C43.3739 33.38 43.0343 33.0404 43.0343 32.6214V22.7594C43.0343 22.3404 43.3739 22.0007 43.7929 22.0007C44.2119 22.0007 44.5515 22.3404 44.5515 22.7594V31.8628H47.586C48.005 31.8628 48.3446 32.2024 48.3446 32.6214C48.3446 33.0404 48.005 33.38 47.586 33.38Z" fill="white"/>
<path d="M65.7927 28.8278H61.9996C61.5806 28.8278 61.241 28.4881 61.241 28.0692C61.241 27.6502 61.5806 27.3105 61.9996 27.3105H65.7927C66.2117 27.3105 66.5513 27.6502 66.5513 28.0692C66.5513 28.4881 66.2117 28.8278 65.7927 28.8278Z" fill="white"/>
<path d="M65.7927 23.5175H61.9996C61.5806 23.5175 61.241 23.1778 61.241 22.7589C61.241 22.3399 61.5806 22.0002 61.9996 22.0002H65.7927C66.2117 22.0002 66.5513 22.3399 66.5513 22.7589C66.5513 23.1778 66.2117 23.5175 65.7927 23.5175Z" fill="white"/>
<path d="M62.2555 13.6097C64.8182 10.5836 68.8539 9.23809 72.7199 10.121C76.5858 11.0039 79.6373 13.9679 80.6322 17.8066C81.6271 21.6452 80.3995 25.7184 77.4492 28.3679C77.0098 28.7182 76.8 29.2826 76.9038 29.8349C77.0077 30.3871 77.4083 30.8367 77.945 31.0033C78.4816 31.17 79.0664 31.0264 79.4648 30.6301C83.2602 27.2253 84.8408 21.9886 83.563 17.0526C82.2852 12.1165 78.3622 8.30455 73.3914 7.16905C68.4207 6.03354 63.2316 7.76391 59.9372 11.6555C59.562 12.0664 59.4418 12.6497 59.624 13.1754C59.8062 13.7011 60.2616 14.0849 60.8105 14.1755C61.3595 14.2662 61.914 14.049 62.2555 13.6097Z" fill="#2CD696"/>
<path d="M67.6851 16.7875C69.5035 15.4839 71.9997 15.6951 73.5732 17.2858C75.1466 18.8764 75.3308 21.3748 74.0074 23.1789C73.6622 23.6592 73.6354 24.2986 73.9392 24.8061C74.1931 25.2455 74.6498 25.5288 75.1562 25.5611C75.6626 25.5935 76.1516 25.3705 76.4593 24.967C78.6681 21.9614 78.3629 17.7957 75.7397 15.1441C73.1164 12.4925 68.9542 12.1426 65.9251 14.319C65.5068 14.6349 65.2825 15.1451 65.3324 15.6669C65.3824 16.1886 65.6995 16.647 66.1701 16.8778C66.6528 17.1307 67.2358 17.0959 67.6851 16.7875Z" fill="#2CD696"/>
<path d="M70.3449 22.0001C71.1828 22.0001 71.8621 21.3208 71.8621 20.4828C71.8621 19.6449 71.1828 18.9656 70.3449 18.9656C69.5069 18.9656 68.8276 19.6449 68.8276 20.4828C68.8276 21.3208 69.5069 22.0001 70.3449 22.0001Z" fill="#2CD696"/>
</svg>
