<svg width="64" height="64" viewBox="0 0 64 64" fill="none" xmlns="http://www.w3.org/2000/svg">
<path d="M4.33882 49.9877V42.5762H1.62695V49.9877C1.62695 52.5296 3.69528 54.644 6.23712 54.644H8.94899C6.40714 54.644 4.33882 52.5296 4.33882 49.9877V49.9877Z" fill="#DCEDFD"/>
<path d="M8.94899 9.35596H6.23712C3.69528 9.35596 1.62695 11.4704 1.62695 14.0122V40.9492H4.33882V14.0122C4.33882 11.4704 6.40714 9.35596 8.94899 9.35596Z" fill="#DCEDFD"/>
<path d="M64 13.966C64 10.5211 61.2076 7.72876 57.7627 7.72876H6.23729C2.79237 7.72876 0 10.5211 0 13.966V49.8983C0 53.3432 2.79237 56.1355 6.23729 56.1355H57.7627C61.2076 56.1355 64 53.3432 64 49.8983V13.966ZM57.7627 54.644H6.23729C3.69544 54.644 1.62712 52.5296 1.62712 49.9878V42.5762H62.3729V49.9878C62.3729 52.5296 60.3046 54.644 57.7627 54.644ZM62.3729 40.9491H1.62712V14.0121C1.62712 11.4703 3.69544 9.35588 6.23729 9.35588H57.7627C60.3046 9.35588 62.3729 11.4703 62.3729 14.0121V40.9491Z" fill="#116FFF"/>
<path d="M54.0136 47.8645H20.7456V45.7957C20.7371 45.5806 20.6439 45.3772 20.4856 45.2316C20.3277 45.0854 20.118 45.0081 19.9024 45.0171H14.1264C13.9119 45.0086 13.7027 45.0859 13.5454 45.2321C13.3876 45.3783 13.2954 45.5812 13.288 45.7957V47.8645H7.36532C6.91563 47.8645 6.55176 48.2289 6.55176 48.6781C6.55176 49.1272 6.91563 49.4916 7.36532 49.4916H13.288V51.3465C13.2965 51.8089 13.664 52.185 14.1264 52.2035H19.9029C20.3664 52.1855 20.7356 51.81 20.7456 51.3465V49.4916H54.0136C54.4633 49.4916 54.8272 49.1272 54.8272 48.6781C54.8272 48.2289 54.4633 47.8645 54.0136 47.8645ZM19.1185 50.5764H14.9151V46.6442H19.1185V50.5764Z" fill="#116FFF"/>
<path d="M25.6508 35.1548C25.7742 35.2226 25.913 35.258 26.0534 35.2575C26.2059 35.2575 26.3553 35.2157 26.4845 35.1357L41.9512 25.5663C42.1911 25.4185 42.3367 25.1569 42.3367 24.8751C42.3373 24.5938 42.1916 24.3322 41.9527 24.1834L26.4877 14.614C26.2324 14.4588 25.913 14.4514 25.6508 14.5949C25.3897 14.7374 25.2255 15.0086 25.2202 15.3057V34.444C25.2255 34.7411 25.3897 35.0128 25.6508 35.1548V35.1548ZM26.8473 16.766L39.9522 24.8746L26.8473 32.9842V16.766Z" fill="#2CD696"/>
</svg>
