<svg width="64" height="64" viewBox="0 0 64 64" fill="none" xmlns="http://www.w3.org/2000/svg">
<path d="M12.1695 46.0824L11.1288 45.1719C10.5709 45.8289 9.98754 46.462 9.3788 47.0718C8.71162 47.7395 8.71162 48.8218 9.3788 49.489L9.96518 50.0753C9.64099 49.4193 9.77158 48.6297 10.2899 48.1124C10.8976 47.5042 11.6115 46.7395 12.1695 46.0824V46.0824Z" fill="#DCEDFD"/>
<path d="M21.1137 23.6418L16.8729 35.305C15.7372 38.4127 14.1325 41.3278 12.1147 43.9498L13.1366 44.9721C15.1026 42.3888 16.6691 39.5245 17.7834 36.4757L22.0243 24.8126L21.1137 23.6418Z" fill="#DCEDFD"/>
<path d="M21.3508 21.6719C21.1623 21.4829 20.8904 21.4041 20.6303 21.4615C20.3696 21.5195 20.1567 21.7059 20.0657 21.9569L15.4057 34.7715C13.8696 38.9768 11.4362 42.7974 8.27508 45.9681C6.99815 47.2451 6.99815 49.3157 8.27508 50.5931L11.7964 54.114C13.0734 55.3914 15.144 55.3914 16.4209 54.114C16.4428 54.0926 16.4651 54.0718 16.486 54.0504L23.768 61.3325C24.0728 61.6373 24.5667 61.6373 24.8716 61.3325C27.1216 59.083 27.1216 55.4356 24.8716 53.1861L21.6272 49.9417C23.5103 48.7405 25.519 47.7486 27.6176 46.9834L40.4321 42.3233C40.6826 42.2324 40.8696 42.0194 40.927 41.7588C40.9849 41.4986 40.9057 41.2268 40.7172 41.0382L35.0571 35.3777C36.7202 33.0855 36.4702 29.9244 34.4677 27.9219C32.4651 25.9193 29.304 25.6693 27.0119 27.3325L21.3508 21.6719ZM14.1089 53.5108C13.6552 53.5123 13.2202 53.3319 12.9001 53.0103L9.37925 49.489C8.71156 48.8218 8.71156 47.7395 9.37925 47.0718C9.98697 46.4636 10.5703 45.8299 11.1292 45.1719L17.2166 51.2603C16.5596 51.8187 15.9265 52.4021 15.3167 53.0103C14.9971 53.3319 14.5622 53.5123 14.1089 53.5108ZM23.7685 54.2903C25.1953 55.7176 25.4057 57.958 24.2695 59.6262L17.6221 52.9788C18.4773 52.2136 19.3747 51.4966 20.3096 50.8314L23.7685 54.2903ZM27.084 45.5164C23.9768 46.6521 21.0612 48.2567 18.4397 50.275L12.1145 43.9498C14.1323 41.3279 15.737 38.4127 16.8726 35.305L21.1135 23.6419L38.7471 41.275L27.084 45.5164ZM30.394 27.7959C31.928 27.7959 33.3396 28.6317 34.0769 29.9768C34.8142 31.3218 34.7593 32.962 33.9336 34.2547L28.1343 28.4554C28.8086 28.023 29.5932 27.7938 30.394 27.7959Z" fill="#116FFF"/>
<path d="M39.7453 34.7682C40.1452 34.9293 40.6 34.7357 40.761 34.3363C42.0314 31.1823 41.2956 27.5746 38.8916 25.1702C36.4872 22.7662 32.8794 22.0299 29.726 23.3007C29.3261 23.4618 29.1325 23.9166 29.2936 24.3165C29.4546 24.7164 29.9094 24.91 30.3093 24.7489C32.8825 23.7123 35.8261 24.3124 37.788 26.2743C39.7494 28.2357 40.35 31.1793 39.3134 33.753C39.1523 34.1524 39.3454 34.6071 39.7453 34.7682V34.7682Z" fill="#116FFF"/>
<path d="M28.2748 19.5031C27.8749 19.6642 27.6813 20.1189 27.8424 20.5188C28.0035 20.9187 28.4582 21.1123 28.8581 20.9513C32.9313 19.31 37.5914 20.2602 40.6966 23.3654C43.8017 26.4706 44.7519 31.1306 43.1107 35.2038C42.9496 35.6037 43.1432 36.0585 43.5431 36.2196C43.943 36.3806 44.3978 36.187 44.5589 35.7871C46.4339 31.1332 45.3485 25.8095 41.8002 22.2617C38.2524 18.7135 32.9283 17.6281 28.2748 19.5031V19.5031Z" fill="#116FFF"/>
<path d="M51.7561 0C45.2632 0 40 5.26321 40 11.7561C40 18.249 45.2632 23.5122 51.7561 23.5122C58.249 23.5122 63.5122 18.249 63.5122 11.7561C63.5051 5.26626 58.2459 0.00711382 51.7561 0ZM51.7561 21.9512C46.1255 21.9512 41.561 17.3867 41.561 11.7561C41.561 6.12551 46.1255 1.56098 51.7561 1.56098C57.3867 1.56098 61.9512 6.12551 61.9512 11.7561C61.9446 17.3841 57.3841 21.9446 51.7561 21.9512Z" fill="#116FFF"/>
<path d="M52.2439 40.4878C45.751 40.4878 40.4878 45.751 40.4878 52.2439C40.4878 58.7368 45.751 64 52.2439 64C58.7368 64 64 58.7368 64 52.2439C63.9929 45.7541 58.7337 40.4949 52.2439 40.4878ZM52.2439 62.439C46.6133 62.439 42.0488 57.8745 42.0488 52.2439C42.0488 46.6133 46.6133 42.0488 52.2439 42.0488C57.8745 42.0488 62.439 46.6133 62.439 52.2439C62.4324 57.8719 57.8719 62.4324 52.2439 62.439Z" fill="#2CD696"/>
<path d="M57.0704 51.5804L50.6771 47.6256C50.4261 47.4767 50.1161 47.4701 49.859 47.6078C49.605 47.7425 49.4418 48.0021 49.4307 48.2897V56.1983C49.4418 56.4859 49.605 56.7455 49.859 56.8802C49.98 56.9452 50.1151 56.9787 50.2528 56.9787C50.3997 56.9787 50.5445 56.9386 50.67 56.8619L57.0668 52.9076C57.2975 52.7658 57.4383 52.5148 57.4388 52.2445C57.4393 51.9742 57.3001 51.7226 57.0704 51.5799V51.5804ZM50.9916 54.7978V49.6901L55.1207 52.244L50.9916 54.7978Z" fill="#2CD696"/>
<path d="M23.5122 11.7561C23.5122 5.26321 18.249 0 11.7561 0C5.26321 0 0 5.26321 0 11.7561C0 18.249 5.26321 23.5122 11.7561 23.5122C18.2459 23.5051 23.5051 18.2459 23.5122 11.7561ZM11.7561 21.9512C6.12551 21.9512 1.56098 17.3867 1.56098 11.7561C1.56098 6.12551 6.12551 1.56098 11.7561 1.56098C17.3867 1.56098 21.9512 6.12551 21.9512 11.7561C21.9446 17.3841 17.3841 21.9446 11.7561 21.9512Z" fill="#2CD696"/>
<path d="M18.2347 7.74139C17.9903 7.60063 17.6905 7.59606 17.4415 7.72817L14.5691 9.29423V9.16974C14.5691 8.02238 13.6926 7.02441 12.5447 7.02441H6.95933C5.78504 7.05033 4.83941 7.99596 4.81299 9.16974V14.3425C4.81299 15.4899 5.81197 16.3903 6.95933 16.3903H12.5447C13.0874 16.3948 13.6087 16.1799 13.9898 15.7942C14.3714 15.4086 14.5803 14.8847 14.5691 14.3425V14.2185L17.4497 15.7836C17.5701 15.8466 17.7037 15.8801 17.8399 15.8796C17.9771 15.8796 18.1113 15.842 18.2286 15.7709C18.4634 15.6291 18.6052 15.3735 18.6016 15.0991V8.41313C18.6082 8.13976 18.4685 7.88366 18.2347 7.74139ZM12.5447 14.8293H6.95933C6.67224 14.8293 6.37396 14.6296 6.37396 14.3425V9.16974C6.39937 8.85775 6.64734 8.61029 6.95933 8.58539H12.5447C12.8318 8.58539 13.0081 8.88264 13.0081 9.16974V14.3425C13.0198 14.4705 12.9756 14.5976 12.8867 14.6906C12.7983 14.7841 12.6733 14.8344 12.5447 14.8293ZM17.0406 13.7805L14.5691 12.438V11.0747L17.0406 9.73173V13.7805Z" fill="#2CD696"/>
<path d="M51.9993 17C51.9567 17 51.914 16.984 51.8815 16.9521L47.8763 13.0233C46.7079 11.8764 46.7079 10.0098 47.8763 8.86238C48.443 8.30622 49.1961 8 49.9973 8C50.744 8 51.4488 8.26597 51.9993 8.75247C52.55 8.26597 53.2545 8 54.001 8C54.8018 8 55.5549 8.30622 56.121 8.86238C56.6878 9.41801 57 10.157 57 10.9432C57 11.7292 56.6878 12.4681 56.121 13.0236L52.1172 16.952C52.0846 16.984 52.042 17 51.9993 17ZM49.9973 8.32713C49.2852 8.32713 48.6156 8.59936 48.112 9.09363C47.0737 10.1134 47.0737 11.7725 48.112 12.792L51.9993 16.605L55.8853 12.792C56.3893 12.2983 56.6666 11.6416 56.6666 10.9432C56.6666 10.2446 56.3893 9.58761 55.8853 9.09379C55.382 8.59936 54.713 8.32713 54.001 8.32713C53.2894 8.32713 52.6204 8.59936 52.1174 9.09363C52.0545 9.15498 51.9438 9.15498 51.8813 9.09363C51.3785 8.59923 50.7093 8.32713 49.9973 8.32713Z" fill="#116FFF" stroke="#116FFF" stroke-width="1.2"/>
</svg>
