<svg width="64" height="64" viewBox="0 0 64 64" fill="none" xmlns="http://www.w3.org/2000/svg">
<path d="M45.102 34.7614C45.1044 33.1073 45.6837 31.5058 46.7402 30.2331C47.7967 28.9603 49.2641 28.0961 50.8895 27.7893C50.4972 27.7082 50.0976 27.6671 49.6969 27.6665C47.8159 27.6686 46.0125 28.4168 44.6824 29.7469C43.3523 31.077 42.6042 32.8804 42.6021 34.7614V37.8645C43.4142 37.6342 44.1035 37.0943 44.5217 36.361L45.102 35.3408V34.7614Z" fill="#DCEDFD"/>
<path d="M48.6184 34.1661C48.4953 34.1906 48.3788 34.2412 48.277 34.3147C48.1751 34.3881 48.0903 34.4826 48.0282 34.5918L47.7949 35.0016C49.446 36.0109 51.3429 36.5468 53.278 36.5506H55.778C53.4414 36.5469 51.1721 35.7672 49.3264 34.3341C49.2274 34.257 49.1129 34.202 48.9907 34.1731C48.8686 34.1441 48.7416 34.1417 48.6184 34.1661V34.1661Z" fill="#DCEDFD"/>
<path d="M45.756 43.6832C45.7508 43.6553 45.7442 43.6278 45.7364 43.6007L45.342 42.2441C45.3078 42.0706 45.2219 41.9117 45.0956 41.788C44.9693 41.6644 44.8085 41.5819 44.6344 41.5514C44.373 41.5059 44.1361 41.3694 43.9657 41.1661C43.7952 40.9628 43.702 40.7058 43.7026 40.4404C43.7026 40.3495 43.7134 40.2589 43.7349 40.1706C43.758 40.0703 43.8059 39.9775 43.8741 39.9005C43.9423 39.8236 44.0288 39.765 44.1255 39.7301C44.1592 39.7341 44.193 39.7363 44.2269 39.7364C45.0848 39.7351 45.9278 39.5119 46.6739 39.0885C47.4201 38.6651 48.044 38.0559 48.4851 37.3201C47.8178 37.0372 47.1769 36.6957 46.5699 36.2996L46.0426 37.2263C45.6082 37.9879 44.9803 38.6211 44.2224 39.0619C43.4646 39.5027 42.6036 39.7354 41.7269 39.7364C41.693 39.7363 41.6592 39.7341 41.6255 39.7301C41.5288 39.765 41.4423 39.8236 41.3741 39.9005C41.3059 39.9775 41.258 40.0703 41.2349 40.1706C41.2134 40.2589 41.2026 40.3495 41.2026 40.4404C41.202 40.7058 41.2952 40.9628 41.4657 41.1661C41.6361 41.3694 41.873 41.5059 42.1344 41.5514C42.3085 41.5819 42.4693 41.6644 42.5956 41.788C42.7219 41.9117 42.8078 42.0706 42.842 42.2441L43.2364 43.6007C43.2443 43.6278 43.2508 43.6553 43.256 43.6832C43.4151 44.5323 43.7407 45.3415 44.214 46.0642C44.6873 46.7869 45.2989 47.4088 46.0137 47.894C46.7284 48.3793 47.5321 48.7182 48.3785 48.8914C49.2249 49.0646 50.0971 49.0685 50.945 48.9031C49.6571 48.6521 48.4741 48.0204 47.549 47.0899C46.624 46.1593 45.9994 44.9726 45.756 43.6832Z" fill="#DCEDFD"/>
<path d="M49.5249 51.6703V50.7703C48.6739 50.7533 47.8307 50.6051 47.0249 50.3311V51.6698C48.2569 52.2094 49.6237 52.3627 50.9447 52.1093C50.4563 52.0171 49.98 51.8699 49.5249 51.6703V51.6703Z" fill="#DCEDFD"/>
<path d="M40.8378 57.3033C40.8476 57.2617 40.8581 57.22 40.8695 57.1783C41.0191 56.6544 41.297 56.176 41.678 55.7864C42.059 55.3968 42.5311 55.1083 43.0516 54.9469L47.2026 53.6011C46.8139 53.4817 46.4346 53.3338 46.0677 53.1584L40.5516 54.9469C40.0311 55.1083 39.559 55.3968 39.178 55.7864C38.797 56.176 38.5191 56.6544 38.3695 57.1783C38.358 57.22 38.3475 57.2617 38.3378 57.3033C38.287 57.5315 38.2626 57.7648 38.2653 57.9986V61.1251H40.7653V57.9986C40.7626 57.7648 40.787 57.5315 40.8378 57.3033Z" fill="#DCEDFD"/>
<path d="M15.5563 2.98743C14.5349 2.80331 13.4856 2.84574 12.4824 3.11174C11.4792 3.37774 10.5467 3.86081 9.75074 4.52681C8.95478 5.19282 8.3148 6.0255 7.87601 6.96602C7.43723 7.90655 7.21036 8.93196 7.21143 9.9698V10.1823C7.24188 9.96576 7.35231 9.76847 7.52097 9.62928C7.68963 9.4901 7.90429 9.41911 8.12268 9.4303C8.1433 9.43155 8.7668 9.45968 9.73518 9.42218C9.85851 7.85729 10.4965 6.37728 11.5496 5.21319C12.6027 4.0491 14.0116 3.26645 15.5563 2.98743V2.98743Z" fill="#DCEDFD"/>
<path d="M9.11539 18.8915C9.11014 18.8636 9.1036 18.8361 9.09576 18.809L8.70139 17.4527C8.66726 17.2792 8.58136 17.1201 8.45502 16.9964C8.32867 16.8727 8.16782 16.7901 7.99364 16.7597C7.7323 16.7141 7.49548 16.5776 7.32502 16.3743C7.15455 16.171 7.0614 15.9141 7.06201 15.6488C7.06194 15.5579 7.07277 15.4672 7.09426 15.3789C7.12425 15.2491 7.19596 15.1328 7.29839 15.0477C6.92551 15.1329 6.53554 15.1032 6.17989 14.9624C6.09602 15.0018 6.02221 15.0598 5.96407 15.132C5.90592 15.2041 5.86495 15.2886 5.84426 15.3789C5.82277 15.4672 5.81194 15.5579 5.81201 15.6488C5.8114 15.9141 5.90455 16.171 6.07502 16.3743C6.24548 16.5776 6.4823 16.7141 6.74364 16.7597C6.91782 16.7901 7.07867 16.8727 7.20502 16.9964C7.33136 17.1201 7.41726 17.2792 7.45139 17.4527L7.84577 18.809C7.85368 18.8361 7.86022 18.8636 7.86539 18.8915C8.14841 20.3925 8.94664 21.7475 10.1223 22.7227C11.2979 23.6978 12.7771 24.2319 14.3045 24.2327C14.515 24.2327 14.7234 24.2219 14.9295 24.2023C13.516 24.0661 12.1849 23.4747 11.1364 22.5169C10.0879 21.5592 9.37868 20.287 9.11539 18.8915V18.8915Z" fill="#DCEDFD"/>
<path d="M8.1287 15.0955C8.62877 15.0941 9.10919 14.9006 9.47058 14.555C9.83197 14.2093 10.0467 13.738 10.0703 13.2385L10.1634 11.1951C10.3152 11.1951 10.4848 11.1925 10.6684 11.1882C10.6472 11.1706 10.6257 11.1535 10.6044 11.1357C9.92945 11.18 9.3512 11.1936 8.91345 11.1951L8.82032 13.2385C8.8066 13.5737 8.70565 13.8994 8.52744 14.1836C8.34923 14.4678 8.09993 14.7006 7.8042 14.8589C7.70898 14.9102 7.60968 14.9536 7.50732 14.9886C7.70711 15.0584 7.91709 15.0945 8.1287 15.0955Z" fill="#DCEDFD"/>
<path d="M12.8848 26.8788V25.859C12.4605 25.7853 12.0425 25.6786 11.6348 25.54V26.8788C12.6701 27.3328 13.8042 27.5149 14.9296 27.4078C14.224 27.3424 13.5336 27.1638 12.8848 26.8788V26.8788Z" fill="#DCEDFD"/>
<path d="M5.44721 32.5117C5.45696 32.47 5.4675 32.4284 5.47884 32.3867C5.62857 31.8628 5.90649 31.3845 6.28748 30.995C6.66847 30.6054 7.14052 30.317 7.66096 30.1557L11.8122 28.8098C11.4235 28.6905 11.0442 28.5425 10.6773 28.3672L5.16096 30.1557C4.64042 30.3171 4.1683 30.6057 3.78731 30.9953C3.40631 31.385 3.12845 31.8635 2.97884 32.3876C2.9675 32.4292 2.95696 32.4709 2.94721 32.5126C2.89635 32.7407 2.87202 32.974 2.87471 33.2077V36.3343H5.37471V33.2068C5.37202 32.9731 5.39635 32.7398 5.44721 32.5117Z" fill="#DCEDFD"/>
<path d="M27.4845 37.2084V33.2068C27.4874 32.8389 27.4477 32.4719 27.3661 32.1132C27.3513 32.0496 27.3352 31.9864 27.3179 31.9237C27.0918 31.1198 26.6689 30.3849 26.0875 29.7856C25.506 29.1862 24.7843 28.7413 23.9876 28.4909L18.7251 26.7844V24.7069C19.6869 24.1024 20.5143 23.3069 21.156 22.3696C21.7978 21.4323 22.2403 20.3732 22.456 19.2579L22.7266 18.327C23.3738 18.0707 23.9064 17.5888 24.2259 16.9703C24.5454 16.3519 24.6302 15.6387 24.4648 14.9625C24.3816 14.614 24.2201 14.289 23.9925 14.0123C23.7649 13.7356 23.4772 13.5144 23.1513 13.3655V9.96992C23.1557 8.80561 22.9301 7.65188 22.4876 6.57494C22.045 5.49799 21.3942 4.51901 20.5725 3.69417C19.7507 2.86932 18.7742 2.21484 17.6989 1.76826C16.6237 1.32168 15.4708 1.0918 14.3065 1.0918C13.1421 1.0918 11.9893 1.32168 10.914 1.76826C9.83872 2.21484 8.8622 2.86932 8.04045 3.69417C7.21869 4.51901 6.56788 5.49799 6.12535 6.57494C5.68282 7.65188 5.45727 8.80561 5.46165 9.96992V13.3643C5.13496 13.5129 4.84652 13.7341 4.61832 14.011C4.39012 14.288 4.2282 14.6135 4.1449 14.9625C3.97953 15.6387 4.06449 16.3518 4.38408 16.9702C4.70368 17.5886 5.2363 18.0704 5.88352 18.3265L6.15415 19.2574C6.36992 20.3727 6.81239 21.4318 7.45415 22.3691C8.09591 23.3064 8.92328 24.1019 9.88503 24.7064V26.7839L4.62165 28.4909C3.82506 28.7413 3.10345 29.1863 2.52205 29.7857C1.94066 30.385 1.51782 31.1198 1.29177 31.9237C1.2744 31.9862 1.2584 32.0495 1.2434 32.1135C1.16192 32.4722 1.12224 32.839 1.12515 33.2068V37.2084C1.12515 37.4405 1.21734 37.663 1.38143 37.8271C1.54553 37.9912 1.76808 38.0834 2.00015 38.0834H26.6095C26.8416 38.0834 27.0641 37.9912 27.2282 37.8271C27.3923 37.663 27.4845 37.4405 27.4845 37.2084ZM14.8902 10.4962C15.9423 11.5205 17.1981 12.3121 18.576 12.8197C16.9421 12.5102 14.9863 11.9294 13.1946 10.8413C13.7449 10.7508 14.3147 10.6375 14.8902 10.4962ZM7.21165 9.96992C7.20773 9.03571 7.38835 8.10992 7.74314 7.2457C8.09793 6.38147 8.61991 5.59582 9.27911 4.93385C9.93831 4.27187 10.7218 3.7466 11.5845 3.38819C12.4472 3.02977 13.3722 2.84527 14.3065 2.84527C15.2407 2.84527 16.1657 3.02977 17.0284 3.38819C17.8912 3.7466 18.6746 4.27187 19.3338 4.93385C19.993 5.59582 20.515 6.38147 20.8698 7.2457C21.2246 8.10992 21.4052 9.03571 21.4013 9.96992V11.7478C19.2355 11.4335 17.7419 10.5792 16.8569 9.89967C18.0191 9.48752 19.1128 8.90326 20.1015 8.16642C20.1927 8.09649 20.2692 8.00929 20.3267 7.90979C20.3842 7.81029 20.4215 7.70045 20.4365 7.58653C20.4515 7.47261 20.444 7.35684 20.4143 7.24585C20.3846 7.13485 20.3333 7.03079 20.2633 6.93961C20.1934 6.84843 20.1062 6.77192 20.0067 6.71444C19.9072 6.65696 19.7974 6.61965 19.6834 6.60462C19.5695 6.5896 19.4538 6.59716 19.3428 6.62687C19.2318 6.65658 19.1277 6.70787 19.0365 6.7778C15.1639 9.74767 8.19277 9.43505 8.1229 9.43092C7.90451 9.41973 7.68985 9.49072 7.52119 9.6299C7.35253 9.76909 7.2421 9.96638 7.21165 10.1829V9.96992ZM7.86577 18.8917C7.86052 18.8638 7.85398 18.8363 7.84615 18.8092L7.45177 17.4528C7.41764 17.2793 7.33174 17.1202 7.2054 16.9965C7.07906 16.8728 6.9182 16.7903 6.74402 16.7598C6.48269 16.7142 6.24587 16.5777 6.0754 16.3744C5.90493 16.1712 5.81178 15.9142 5.8124 15.6489C5.81232 15.558 5.82315 15.4674 5.84465 15.379C5.86534 15.2887 5.9063 15.2043 5.96445 15.1321C6.0226 15.0599 6.0964 15.002 6.18027 14.9625C6.46762 15.0735 6.77722 15.1144 7.08353 15.0821C7.38984 15.0498 7.68408 14.9452 7.94197 14.7767C8.19985 14.6083 8.414 14.381 8.56674 14.1135C8.71947 13.8461 8.80642 13.5461 8.8204 13.2384L8.91352 11.195C9.35102 11.1935 9.93002 11.1799 10.6045 11.1357C15.3399 15.1119 21.9486 14.9295 22.3035 14.9162C22.4158 14.9428 22.5184 15.0002 22.5999 15.0819C22.6814 15.1636 22.7386 15.2663 22.765 15.3787C22.7865 15.4671 22.7973 15.5578 22.7973 15.6488C22.7979 15.9141 22.7047 16.1711 22.5343 16.3743C22.3638 16.5776 22.127 16.7141 21.8656 16.7597C21.6991 16.7905 21.5449 16.8685 21.4215 16.9845C21.298 17.1004 21.2105 17.2494 21.1693 17.4137L20.7635 18.809C20.7557 18.8361 20.7491 18.8636 20.7439 18.8915C20.4616 20.3929 19.6636 21.7484 18.4879 22.7237C17.3121 23.699 15.8325 24.2328 14.3048 24.2328C12.7772 24.2328 11.2976 23.699 10.1218 22.7237C8.94604 21.7484 8.14804 20.393 7.86577 18.8917ZM14.3049 25.9828C15.2133 25.9828 16.1154 25.8332 16.9752 25.54V26.8788C16.1335 27.2478 15.2244 27.4384 14.3053 27.4384C13.3863 27.4384 12.4772 27.2478 11.6355 26.8788V25.54C12.495 25.8331 13.3968 25.9827 14.3049 25.9828ZM25.7345 36.3328H2.87515V33.2068C2.87246 32.9731 2.89679 32.7398 2.94765 32.5117C2.9574 32.47 2.96794 32.4283 2.97927 32.3867C3.12901 31.8628 3.40693 31.3845 3.78792 30.9949C4.16891 30.6054 4.64096 30.317 5.1614 30.1557L10.6775 28.3672C11.81 28.9088 13.0495 29.1899 14.3048 29.1899C15.5602 29.1899 16.7996 28.9088 17.9321 28.3672L23.4483 30.1557C23.9688 30.317 24.4409 30.6056 24.8219 30.9953C25.2029 31.385 25.4808 31.8635 25.6304 32.3875C25.6418 32.4292 25.6524 32.4706 25.662 32.5118C25.7129 32.7401 25.7372 32.9734 25.7345 33.2073V36.3328Z" fill="#116FFF"/>
<path d="M62.7082 56.7152C62.4821 55.9114 62.0593 55.1766 61.4779 54.5772C60.8965 53.9779 60.1749 53.5329 59.3783 53.2825L54.1149 51.576V49.4985C55.0766 48.894 55.9039 48.0986 56.5457 47.1613C57.1874 46.2241 57.63 45.1652 57.8458 44.05L58.1164 43.1191C58.7636 42.8629 59.2963 42.381 59.6158 41.7626C59.9354 41.1442 60.0204 40.431 59.855 39.7549C59.7791 39.4364 59.6377 39.1372 59.4398 38.8764C59.2419 38.6156 58.9919 38.3989 58.7057 38.24C59.3478 38.104 59.9238 37.7517 60.3374 37.2421C60.7511 36.7325 60.9773 36.0963 60.9783 35.44C60.9783 35.2079 60.8861 34.9854 60.722 34.8213C60.5579 34.6572 60.3354 34.565 60.1033 34.565C59.6741 34.5619 59.2582 34.4161 58.921 34.1506C58.5838 33.8851 58.3445 33.5149 58.2408 33.0985C57.1707 28.9377 53.5772 25.9177 49.6965 25.9177C47.3515 25.9204 45.1033 26.8531 43.4452 28.5113C41.787 30.1694 40.8543 32.4176 40.8517 34.7626V38.157C40.5249 38.3056 40.2364 38.5269 40.0082 38.8039C39.78 39.081 39.6181 39.4066 39.5349 39.7557C39.3695 40.4319 39.4545 41.145 39.7741 41.7634C40.0937 42.3818 40.6263 42.8636 41.2735 43.1197L41.5442 44.0506C41.76 45.1656 42.2025 46.2245 42.8442 47.1616C43.486 48.0987 44.3132 48.8941 45.2748 49.4985V51.576L40.0123 53.2825C39.2157 53.5329 38.4941 53.9779 37.9127 54.5772C37.3313 55.1766 36.9084 55.9114 36.6824 56.7152C36.665 56.7777 36.649 56.8411 36.634 56.9051C36.5525 57.2638 36.5129 57.6307 36.5158 57.9985V62C36.5158 62.232 36.608 62.4546 36.7721 62.6187C36.9362 62.7828 37.1587 62.875 37.3908 62.875H61.9998C62.2319 62.875 62.4544 62.7828 62.6185 62.6187C62.7826 62.4546 62.8748 62.232 62.8748 62V57.9985C62.8777 57.6305 62.838 57.2635 62.7564 56.9047C62.7416 56.8411 62.7255 56.778 62.7082 56.7152ZM42.6019 34.7615C42.604 32.8804 43.3522 31.0771 44.6823 29.747C46.0124 28.4169 47.8158 27.6687 49.6968 27.6666C52.7913 27.6666 55.6718 30.1339 56.5468 33.5335C56.7006 34.1374 57.0045 34.6926 57.4302 35.1477C57.8559 35.6028 58.3896 35.943 58.9819 36.1367C58.8778 36.266 58.7461 36.3703 58.5963 36.4419C58.4466 36.5136 58.2828 36.5508 58.1168 36.5507H53.2779C50.9412 36.5469 48.6719 35.7673 46.8263 34.3342C46.7272 34.2571 46.6127 34.2021 46.4906 34.1731C46.3684 34.1442 46.2414 34.1418 46.1183 34.1663C45.9951 34.1907 45.8786 34.2413 45.7768 34.3148C45.675 34.3882 45.5901 34.4827 45.528 34.5918L44.5215 36.3611C44.1033 37.0944 43.414 37.6343 42.6019 37.8646V34.7615ZM43.256 43.6832C43.2508 43.6553 43.2442 43.6278 43.2364 43.6007L42.842 42.2441C42.8078 42.0707 42.7219 41.9117 42.5956 41.7881C42.4693 41.6644 42.3085 41.5819 42.1344 41.5515C41.873 41.5059 41.6362 41.3694 41.4657 41.1661C41.2952 40.9628 41.202 40.7058 41.2027 40.4405C41.2026 40.3495 41.2134 40.2589 41.2349 40.1706C41.258 40.0704 41.3059 39.9775 41.3741 39.9006C41.4423 39.8236 41.5288 39.765 41.6255 39.7301C41.6592 39.7342 41.693 39.7363 41.7269 39.7365C42.6037 39.7355 43.4646 39.5028 44.2225 39.062C44.9803 38.6212 45.6083 37.9879 46.0427 37.2264L46.5699 36.2996C48.5652 37.6016 50.8954 38.2967 53.2779 38.3007H56.7809V38.814C56.7809 39.0321 56.8624 39.2424 57.0094 39.4036C57.1564 39.5647 57.3583 39.6652 57.5755 39.6852C57.7112 39.6938 57.8407 39.7455 57.945 39.8327C58.0492 39.92 58.1229 40.0383 58.1553 40.1704C58.1768 40.2588 58.1876 40.3495 58.1875 40.4405C58.1882 40.7058 58.095 40.9628 57.9245 41.1661C57.754 41.3694 57.5172 41.5059 57.2558 41.5515C57.0893 41.5823 56.9352 41.6603 56.8117 41.7762C56.6883 41.8921 56.6008 42.041 56.5595 42.2052L56.1538 43.6007C56.1459 43.6279 56.1393 43.6554 56.1342 43.6832C55.8519 45.1846 55.0539 46.5401 53.8781 47.5154C52.7024 48.4907 51.2227 49.0245 49.6951 49.0245C48.1675 49.0245 46.6878 48.4907 45.5121 47.5154C44.3363 46.5401 43.5383 45.1846 43.256 43.6832V43.6832ZM49.695 50.775C50.6033 50.775 51.5053 50.6254 52.3649 50.3322V51.671C51.5232 52.04 50.6141 52.2306 49.6951 52.2306C48.776 52.2306 47.867 52.04 47.0253 51.671V50.3322C47.8849 50.6254 48.7868 50.775 49.695 50.775V50.775ZM61.1248 61.125H38.2654V57.9985C38.2627 57.7647 38.287 57.5314 38.3379 57.3032C38.3477 57.2616 38.3582 57.2199 38.3695 57.1782C38.5192 56.6543 38.7971 56.1759 39.1781 55.7863C39.5591 55.3967 40.0312 55.1082 40.5517 54.9469L46.0678 53.1583C47.2003 53.7 48.4397 53.9811 49.6951 53.9811C50.9505 53.9811 52.1899 53.7 53.3224 53.1583L58.8385 54.9469C59.359 55.1082 59.8311 55.3967 60.2121 55.7863C60.5931 56.1759 60.871 56.6543 61.0207 57.1782C61.0321 57.2199 61.0426 57.2613 61.0523 57.3025C61.1031 57.5308 61.1275 57.7642 61.1248 57.9981V61.125Z" fill="#116FFF"/>
<path d="M31.6124 57.6699C31.6521 57.8299 31.7363 57.9754 31.8551 58.0897C31.974 58.204 32.1227 58.2823 32.2841 58.3158C32.4456 58.3492 32.6132 58.3364 32.7676 58.2787C32.9221 58.221 33.0571 58.1209 33.1572 57.9899L36.6197 53.4545C36.6959 53.3546 36.7497 53.2395 36.7775 53.117C36.8052 52.9944 36.8063 52.8673 36.7806 52.7444C36.7548 52.6214 36.7029 52.5054 36.6283 52.4043C36.5538 52.3032 36.4583 52.2193 36.3484 52.1584L31.027 49.2074C30.878 49.1247 30.7081 49.0874 30.5381 49.1C30.3682 49.1125 30.2056 49.1745 30.0704 49.2781C29.9351 49.3818 29.8331 49.5227 29.7768 49.6836C29.7205 49.8444 29.7124 50.0182 29.7535 50.1836L30.4319 52.9151C26.7413 53.1971 23.0444 52.4197 19.9235 50.6891C15.4529 48.21 12.676 44.034 12.4954 39.5184C12.4908 39.4035 12.4637 39.2907 12.4155 39.1864C12.3673 39.0821 12.2991 38.9883 12.2147 38.9103C12.1302 38.8324 12.0313 38.7718 11.9235 38.7321C11.8156 38.6924 11.701 38.6743 11.5862 38.6789C11.4714 38.6835 11.3586 38.7106 11.2543 38.7588C11.15 38.807 11.0562 38.8752 10.9782 38.9597C10.9003 39.0441 10.8397 39.143 10.8 39.2509C10.7603 39.3587 10.7422 39.4733 10.7468 39.5881C10.952 44.7196 14.0653 49.4416 19.0749 52.2196C22.1038 53.8746 25.5024 54.7355 28.9539 54.7222C29.5879 54.7222 30.223 54.6931 30.859 54.6347L31.6124 57.6699ZM34.6138 53.1976L32.8717 55.4797L32.3835 53.5126C32.378 53.4851 32.3713 53.4581 32.3634 53.4317L31.9364 51.7126L34.6138 53.1976Z" fill="#2CD696"/>
<path d="M44.2616 9.97299C48.7322 12.4521 51.5091 16.6281 51.6897 21.1437C51.6987 21.3695 51.7947 21.583 51.9575 21.7396C52.1204 21.8961 52.3375 21.9837 52.5634 21.9839C52.5753 21.9839 52.5871 21.9836 52.599 21.9831C52.8308 21.9738 53.0495 21.8729 53.2069 21.7024C53.3644 21.5319 53.4476 21.3058 53.4384 21.074C53.2331 15.9425 50.1199 11.2205 45.1102 8.44249C41.6087 6.50086 37.4527 5.65311 33.3259 6.02611L32.5725 2.99224C32.5327 2.83222 32.4486 2.68669 32.3298 2.57242C32.2109 2.45814 32.0622 2.37976 31.9008 2.34632C31.7393 2.31287 31.5717 2.32572 31.4173 2.38338C31.2628 2.44105 31.1278 2.54118 31.0277 2.67224L27.5652 7.20761C27.489 7.30748 27.4352 7.42259 27.4074 7.54512C27.3796 7.66765 27.3786 7.79472 27.4043 7.9177C27.43 8.04068 27.4819 8.15667 27.5565 8.25779C27.631 8.35892 27.7265 8.4428 27.8364 8.50374L33.1579 11.4546C33.3069 11.5373 33.4768 11.5746 33.6468 11.562C33.8167 11.5494 33.9793 11.4875 34.1145 11.3838C34.2498 11.2801 34.3518 11.1392 34.4081 10.9784C34.4644 10.8175 34.4725 10.6437 34.4314 10.4784L33.753 7.74699C37.4436 7.46499 41.1406 8.24236 44.2616 9.97299ZM29.571 7.46449L31.3126 5.18224L31.8017 7.15011C31.8071 7.17719 31.8136 7.20374 31.8215 7.22974L32.2486 8.94974L29.571 7.46449Z" fill="#2CD696"/>
</svg>
