<svg width="39" height="49" viewBox="0 0 39 49" fill="none" xmlns="http://www.w3.org/2000/svg">
<path d="M3.26659 11.4333H0.816589V41.65L2.85826 45.325L3.26659 11.4333Z" fill="#DCEDFD"/>
<path d="M6.53326 6.53329H4.18111C3.30805 6.53453 1.82484 6.56035 1.20749 7.34136C0.590142 8.12237 0.889072 9.59477 0.888097 10.6993V11.4333H3.24025V10.6993C3.24122 9.59477 3.58848 8.53586 4.20582 7.75485C4.82317 6.97384 5.66019 6.53453 6.53326 6.53329Z" fill="#DCEDFD"/>
<path d="M2.72222 43.5556V40.8334H0V43.5556C0.00112882 44.999 0.403018 46.3829 1.1175 47.4036C1.83197 48.4243 2.80069 48.9984 3.81111 49H6.53333C5.52291 48.9984 4.55419 48.4243 3.83972 47.4036C3.12524 46.3829 2.72335 44.999 2.72222 43.5556Z" fill="#DCEDFD"/>
<path d="M21.3856 5.71661H3.11441C1.39708 5.71661 0 7.13871 0 8.88678V45.8298C0 47.5779 1.39708 48.9999 3.11441 48.9999H21.3856C23.1029 48.9999 24.5 47.5779 24.5 45.8298V8.88678C24.5 7.13871 23.1029 5.71661 21.3856 5.71661ZM23.2542 40.1235H5.60593C5.26193 40.1235 4.98305 40.4074 4.98305 40.7575C4.98305 41.1077 5.26193 41.3915 5.60593 41.3915H23.2542V45.8298C23.2542 46.8786 22.416 47.7319 21.3856 47.7319H3.11441C2.08399 47.7319 1.24576 46.8786 1.24576 45.8298V41.3915H3.11441C3.4584 41.3915 3.73729 41.1077 3.73729 40.7575C3.73729 40.4074 3.4584 40.1235 3.11441 40.1235H1.24576V12.0569H23.2542V40.1235ZM23.2542 10.7889H1.24576V8.88678C1.24576 7.83792 2.08399 6.98468 3.11441 6.98468H21.3856C22.416 6.98468 23.2542 7.83792 23.2542 8.88678V10.7889Z" fill="#2691F4"/>
<rect x="17.9666" y="16.3334" width="7.35" height="17.9667" fill="white"/>
<path d="M22.8954 14.8889C22.7024 14.704 22.4128 14.649 22.1613 14.7497C21.9099 14.8504 21.7459 15.087 21.7459 15.3493V18.8142C18.1054 18.9537 16.2824 20.4076 16.0038 20.6494C14.1671 22.1015 12.9131 24.1252 12.4576 26.3715C12.2299 27.4569 12.1891 28.5709 12.3373 29.669L12.3378 29.6728C12.3391 29.6824 12.3407 29.6923 12.3423 29.702L12.4855 30.4951C12.5337 30.7622 12.7493 30.9725 13.0261 31.0222C13.303 31.0719 13.5827 30.9504 13.7275 30.7178L14.1566 30.0287C15.4752 27.9165 17.1183 26.5164 19.0411 25.8673C19.9084 25.5717 20.8273 25.4421 21.7459 25.4853V29.0739C21.7459 29.3367 21.9104 29.5739 22.1627 29.6741C22.4152 29.7745 22.7053 29.7182 22.8978 29.5318L30.0205 22.635C30.283 22.3808 30.2819 21.9696 30.0181 21.7167L22.8954 14.8889ZM23.0942 27.5003V24.9011C23.0942 24.5825 22.8541 24.3108 22.5273 24.2601C21.9507 24.1706 20.4129 24.0283 18.5954 24.6419C16.6565 25.2963 14.9791 26.5841 13.5977 28.4763C13.5937 27.8546 13.6548 27.2339 13.7801 26.6239C14.1898 24.6284 15.2303 22.9523 16.8724 21.6427C16.8869 21.6313 16.9006 21.6193 16.914 21.6067C16.9612 21.5645 18.6731 20.0756 22.4146 20.1025H22.4196C22.7919 20.1025 23.0939 19.8116 23.0942 19.4529V16.9115L28.5898 22.1794L23.0942 27.5003Z" fill="#2CD696"/>
<path d="M27.2889 30.1786C27.0252 30.1786 26.8111 30.3948 26.8111 30.6615V32.7023C26.8104 33.5021 26.1692 34.15 25.3779 34.1509H9.73872C8.94745 34.15 8.30641 33.5021 8.30547 32.7023V21.1978C8.30641 20.398 8.94745 19.7501 9.73872 19.7492H13.0428C13.3067 19.7492 13.5206 19.533 13.5206 19.2663C13.5206 18.9996 13.3067 18.7834 13.0428 18.7834H9.73872C8.42006 18.7849 7.35147 19.865 7.34998 21.1978V32.7023C7.35147 34.0351 8.42006 35.1152 9.73872 35.1167H25.3779C26.6966 35.1152 27.7651 34.0351 27.7666 32.7023V30.6615C27.7666 30.3948 27.5528 30.1786 27.2889 30.1786Z" fill="#2691F4"/>
<path d="M34.3001 11.4333C32.0486 11.4333 30.2168 13.265 30.2168 15.5166C30.2168 17.7681 32.0486 19.5999 34.3001 19.5999C36.5517 19.5999 38.3835 17.7681 38.3835 15.5166C38.3835 13.265 36.5516 11.4333 34.3001 11.4333ZM34.3001 18.6383C32.5788 18.6383 31.1782 17.2379 31.1782 15.5166C31.1782 13.7952 32.5788 12.3947 34.3001 12.3947C36.0215 12.3947 37.4219 13.7952 37.4219 15.5166C37.4219 17.2379 36.0215 18.6383 34.3001 18.6383Z" fill="#2CD696"/>
<path d="M35.4739 14.2491L33.5772 16.1457L33.0625 15.6309C32.8747 15.4432 32.5703 15.4432 32.3827 15.6309C32.1949 15.8186 32.1949 16.123 32.3827 16.3108L33.2372 17.1654C33.3311 17.2593 33.4542 17.3063 33.5772 17.3063C33.7001 17.3063 33.8232 17.2593 33.9171 17.1654L36.1537 14.9289C36.3413 14.7411 36.3413 14.4367 36.1537 14.2491C35.9659 14.0613 35.6615 14.0613 35.4739 14.2491Z" fill="#2CD696"/>
<path d="M29.4 0C27.5988 0 26.1334 1.46532 26.1334 3.26662C26.1334 5.06782 27.5988 6.53324 29.4 6.53324C31.2013 6.53324 32.6667 5.06782 32.6667 3.26662C32.6667 1.46532 31.2012 0 29.4 0ZM29.4 5.764C28.0229 5.764 26.9025 4.64366 26.9025 3.26662C26.9025 1.88947 28.0229 0.76914 29.4 0.76914C30.7771 0.76914 31.8975 1.88947 31.8975 3.26662C31.8975 4.64366 30.7771 5.764 29.4 5.764Z" fill="#2CD696"/>
<path d="M30.339 2.25247L28.8216 3.76973L28.4099 3.35789C28.2597 3.20777 28.0162 3.20777 27.866 3.35789C27.7158 3.50812 27.7158 3.75162 27.866 3.90184L28.5497 4.58551C28.6248 4.66068 28.7232 4.69821 28.8216 4.69821C28.92 4.69821 29.0185 4.66068 29.0935 4.58551L30.8828 2.79632C31.033 2.6461 31.033 2.40259 30.8828 2.25247C30.7326 2.10224 30.4891 2.10224 30.339 2.25247Z" fill="#2CD696"/>
<path d="M13.8258 8.25275H11.4332C11.1029 8.25275 10.8351 8.53662 10.8351 8.88678C10.8351 9.23694 11.1029 9.52081 11.4332 9.52081H13.8258C14.1561 9.52081 14.4239 9.23694 14.4239 8.88678C14.4239 8.53662 14.1561 8.25275 13.8258 8.25275Z" fill="#2691F4"/>
<path d="M11.4334 42.6597C10.4439 42.6597 9.63898 43.5129 9.63898 44.5618C9.63898 45.6106 10.4439 46.4639 11.4334 46.4639C12.4229 46.4639 13.2278 45.6106 13.2278 44.5618C13.2278 43.5129 12.4229 42.6597 11.4334 42.6597ZM11.4334 45.1958C11.1036 45.1958 10.8353 44.9114 10.8353 44.5618C10.8353 44.2121 11.1036 43.9277 11.4334 43.9277C11.7633 43.9277 12.0316 44.2121 12.0316 44.5618C12.0316 44.9114 11.7633 45.1958 11.4334 45.1958Z" fill="#2691F4"/>
<path d="M9.04083 9.52081C9.37118 9.52081 9.63898 9.23695 9.63898 8.88678C9.63898 8.53661 9.37118 8.25275 9.04083 8.25275C8.71049 8.25275 8.44269 8.53661 8.44269 8.88678C8.44269 9.23695 8.71049 9.52081 9.04083 9.52081Z" fill="#2691F4"/>
</svg>
