<svg viewBox="0 0 64 64" fill="none" xmlns="http://www.w3.org/2000/svg">
  <g>
    <path d="M7.25653 29.7469C7.25653 16.0564 18.359 4.95394 32.0495 4.95394C35.3423 4.95252 38.6025 5.60589 41.6402 6.87719C37.2235 3.27872 31.6994 1.31768 26.0024 1.32571C12.312 1.32571 1.20947 12.4282 1.20947 26.1186C1.21089 36.1071 7.2022 45.121 16.4117 48.9888C10.6136 44.2844 7.24897 37.2136 7.25653 29.7469V29.7469Z" fill="#DCEDFD"/>
    <path d="M26.0021 0.116285C15.4849 0.114396 6.00287 6.44916 1.97827 16.166C-2.04586 25.8829 0.180216 37.0671 7.61904 44.5017C17.772 54.6546 34.2327 54.6546 44.3851 44.5017C54.5381 34.3492 54.5381 17.8885 44.3851 7.73558C39.5206 2.84313 32.9014 0.0997503 26.0021 0.116285V0.116285ZM26.0021 49.7022C13.0009 49.7022 2.41857 39.1198 2.41857 26.1186C2.41857 13.1175 13.0009 2.53511 26.0021 2.53511C39.0033 2.53511 49.5856 13.1175 49.5856 26.1186C49.5856 39.1198 39.0033 49.7022 26.0021 49.7022Z" fill="#116FFF"/>
    <path d="M39.04 24.9091H27.466V13.3351C27.466 12.6671 26.9246 12.1257 26.2566 12.1257C25.5886 12.1257 25.0472 12.6671 25.0472 13.3351V24.9091H12.8803C12.2123 24.9091 11.6709 25.4505 11.6709 26.1185C11.6709 26.7865 12.2123 27.3279 12.8803 27.3279H25.059V39.5066C25.059 40.1746 25.6009 40.716 26.2684 40.716C26.9364 40.716 27.4778 40.1746 27.4778 39.5066V27.3279H39.0523C39.7198 27.3246 40.2588 26.7804 40.2555 26.1124C40.2522 25.4449 39.708 24.9058 39.04 24.9091V24.9091Z" fill="#2CD696"/>
  </g>
</svg>
