<svg width="64" height="64" viewBox="0 0 64 64" fill="none" xmlns="http://www.w3.org/2000/svg">
<path d="M17.459 12.2035C17.5529 9.71477 18.5306 7.341 20.2166 5.5081C21.9027 3.67519 24.1868 2.50312 26.659 2.2022C25.1902 2.0226 23.7 2.15723 22.2871 2.59717C20.8743 3.03711 19.5711 3.77231 18.4639 4.75405C17.3567 5.73578 16.4709 6.94163 15.865 8.29166C15.2592 9.6417 14.9472 11.1051 14.9497 12.5848V17.7445C15.0209 17.7321 15.0896 17.7083 15.1532 17.6741C15.2516 17.622 15.3346 17.5448 15.3937 17.4505C15.4528 17.3561 15.486 17.2479 15.49 17.1366L15.6775 13.021C15.6828 12.9058 15.7108 12.7929 15.7599 12.6886C15.809 12.5843 15.8782 12.4908 15.9635 12.4133C16.0489 12.3359 16.1487 12.2761 16.2572 12.2373C16.3657 12.1985 16.4809 12.1816 16.596 12.1875C16.6133 12.1883 16.9255 12.2025 17.459 12.2035Z" fill="#DCEDFD"/>
<path d="M18.386 25.3418C18.3807 25.314 18.3741 25.2864 18.3662 25.2593L17.8004 23.3124C17.7686 23.1359 17.6835 22.9735 17.5564 22.847C17.4294 22.7206 17.2666 22.6362 17.09 22.6053C16.8239 22.558 16.5703 22.4568 16.3449 22.3077C16.1195 22.1586 15.927 21.9649 15.7794 21.7385C15.6318 21.5121 15.5322 21.2579 15.4867 20.9915C15.4412 20.7251 15.4508 20.4522 15.515 20.1896C15.5632 19.9786 15.6661 19.7839 15.8132 19.6252C15.9604 19.4664 16.1467 19.3491 16.3535 19.285C16.7097 19.4475 17.1003 19.5201 17.4911 19.4965C17.8818 19.4729 18.2609 19.3537 18.5949 19.1495C18.9289 18.9453 19.2077 18.6623 19.4068 18.3252C19.606 17.9881 19.7194 17.6074 19.7371 17.2163L19.8856 13.9551C20.0327 13.9559 20.1972 13.9551 20.3762 13.954C20.3387 13.9223 20.3 13.8915 20.2622 13.8589C19.0505 13.9439 18.0497 13.9589 17.3856 13.9551L17.2371 17.2163C17.2209 17.608 17.1084 17.9897 16.9097 18.3276C16.7109 18.6655 16.4319 18.9492 16.0975 19.1537C15.763 19.3583 15.3833 19.4772 14.9919 19.5001C14.6005 19.523 14.2095 19.4491 13.8535 19.285C13.6467 19.3491 13.4604 19.4664 13.3132 19.6252C13.1661 19.7839 13.0632 19.9786 13.015 20.1896C12.9508 20.4522 12.9412 20.7251 12.9867 20.9915C13.0322 21.2579 13.1318 21.5121 13.2794 21.7385C13.427 21.9649 13.6195 22.1586 13.8449 22.3077C14.0703 22.4568 14.3239 22.558 14.59 22.6053C14.7666 22.6362 14.9294 22.7206 15.0564 22.847C15.1835 22.9735 15.2686 23.1359 15.3003 23.3124L15.8662 25.2589C15.8741 25.286 15.8807 25.3136 15.886 25.3414C16.3426 27.7738 17.7131 29.939 19.7161 31.3926C21.7192 32.8461 24.2027 33.4777 26.6567 33.1575C24.6303 32.8927 22.7394 31.9943 21.2541 30.5907C19.7687 29.1871 18.7649 27.35 18.386 25.3418Z" fill="#DCEDFD"/>
<path d="M23.7407 36.8749V34.8659C22.8849 34.7396 22.0462 34.5164 21.2407 34.2007V36.8749C22.9292 37.6658 24.808 37.9594 26.6572 37.7216C25.6467 37.5938 24.6626 37.3081 23.7407 36.8749V36.8749Z" fill="#DCEDFD"/>
<path d="M11.395 44.5592C11.4099 44.4957 11.4259 44.4326 11.4434 44.3691C11.6724 43.5648 12.0982 42.8303 12.6824 42.232C13.2666 41.6336 13.9906 41.1903 14.7891 40.9421L21.347 38.8158C20.9828 38.6796 20.6258 38.5248 20.2774 38.3521L12.2891 40.9421C11.4906 41.1903 10.7666 41.6336 10.1824 42.232C9.59824 42.8303 9.17241 43.5648 8.94339 44.3691C8.92589 44.4326 8.90989 44.4957 8.89501 44.5592C8.81626 44.9116 8.77851 45.2719 8.78251 45.6329V50.4491H11.2825V45.6329C11.2785 45.2719 11.3163 44.9116 11.395 44.5592V44.5592Z" fill="#DCEDFD"/>
<path d="M42.6997 54.2776C41.8206 53.9958 40.9806 53.604 40.1997 53.1116V60.7014L42.6997 58.3089V54.2776Z" fill="#DCEDFD"/>
<path d="M39.4678 44.201C39.4678 39.7291 42.9009 36.023 47.3428 35.4294C46.9285 35.3733 46.5109 35.3449 46.0928 35.3442C41.0613 35.3442 36.9678 39.3174 36.9678 44.201C36.9678 49.0846 41.0613 53.0577 46.0928 53.0577C46.5109 53.0571 46.9285 53.0286 47.3428 52.9725C42.9009 52.379 39.4678 48.6729 39.4678 44.201Z" fill="#DCEDFD"/>
<path d="M37.6191 12.5849C37.6242 10.9782 37.3122 9.38626 36.7009 7.90038C36.0896 6.4145 35.1911 5.06388 34.0568 3.92595C32.9225 2.78802 31.5747 1.88515 30.0908 1.2691C28.6069 0.653051 27.016 0.335938 25.4093 0.335938C23.8026 0.335938 22.2117 0.653051 20.7277 1.2691C19.2438 1.88515 17.8961 2.78802 16.7618 3.92595C15.6275 5.06388 14.7289 6.4145 14.1176 7.90038C13.5063 9.38626 13.1943 10.9782 13.1995 12.5849V17.6599C12.7352 17.829 12.3202 18.1106 11.9915 18.4795C11.6628 18.8484 11.4307 19.293 11.3161 19.7736C11.0948 20.6782 11.2201 21.6329 11.6673 22.4497C12.1145 23.2666 12.8512 23.8865 13.7325 24.1875L14.1743 25.7076C14.4767 27.2805 15.1061 28.7723 16.0219 30.0863C16.9377 31.4003 18.1194 32.5072 19.4905 33.3353V36.7675L11.7498 39.2774C10.6752 39.6145 9.70158 40.2142 8.91695 41.0222C8.13232 41.8302 7.56145 42.821 7.25596 43.905C7.23234 43.9903 7.21059 44.0761 7.19059 44.1619C7.08103 44.6445 7.0278 45.1381 7.03196 45.633V51.3241C7.03196 51.5562 7.12415 51.7788 7.28825 51.9428C7.45234 52.1069 7.6749 52.1991 7.90696 52.1991H39.3248V50.4491H8.78197V45.633C8.77796 45.2719 8.81571 44.9116 8.89446 44.5593C8.90934 44.4958 8.92534 44.4326 8.94284 44.3691C9.17186 43.5649 9.59769 42.8304 10.1819 42.2321C10.766 41.6337 11.4901 41.1904 12.2886 40.9421L20.2768 38.3521C21.8719 39.1408 23.6273 39.551 25.4066 39.551C27.1859 39.551 28.9413 39.1408 30.5363 38.3521L37.0005 40.4479L37.5402 38.7833L31.3235 36.7675V33.3356C32.6945 32.5076 33.8763 31.4007 34.792 30.0867C35.7078 28.7726 36.3372 27.2808 36.6395 25.7079L37.0815 24.1878C37.9628 23.8868 38.6995 23.2669 39.1467 22.45C39.5939 21.6331 39.7191 20.6785 39.4977 19.7739C39.3833 19.294 39.1519 18.85 38.8241 18.4814C38.4963 18.1127 38.0823 17.831 37.6191 17.6614V12.5849ZM26.3535 12.9224C27.3878 14.0076 30.466 16.713 35.8691 17.2958V17.4958C33.6843 17.4316 27.6685 16.9393 22.799 13.5994C23.9953 13.4394 25.182 13.2132 26.3535 12.9224ZM14.9495 12.5849C14.9447 11.2082 15.2117 9.84419 15.7353 8.57097C16.2588 7.29775 17.0285 6.14039 18.0003 5.16527C18.972 4.19015 20.1267 3.41644 21.3981 2.88852C22.6695 2.3606 24.0326 2.08885 25.4093 2.08885C26.7859 2.08885 28.149 2.3606 29.4204 2.88852C30.6919 3.41644 31.8465 4.19015 32.8183 5.16527C33.7901 6.14039 34.5598 7.29775 35.0833 8.57097C35.6068 9.84419 35.8739 11.2082 35.8691 12.5849V15.5335C33.018 15.1895 30.9378 14.1864 29.6553 13.361C29.182 13.0572 28.7302 12.7211 28.3032 12.355C30.308 11.68 32.0222 10.8035 33.4262 9.72676C33.6079 9.5847 33.7262 9.37664 33.7554 9.14782C33.7845 8.919 33.7221 8.68794 33.5817 8.50491C33.4413 8.32187 33.2344 8.20166 33.0058 8.17042C32.7773 8.13919 32.5457 8.19946 32.3613 8.33813C26.7426 12.6471 16.6973 12.1926 16.5961 12.1875C16.4809 12.1816 16.3657 12.1985 16.2571 12.2373C16.1484 12.276 16.0486 12.3359 15.9632 12.4134C15.8777 12.4909 15.8085 12.5845 15.7594 12.6889C15.7103 12.7933 15.6823 12.9063 15.6771 13.0215L15.4896 17.1371C15.4856 17.2484 15.4524 17.3567 15.3933 17.451C15.3342 17.5454 15.2512 17.6225 15.1528 17.6746C15.0892 17.7088 15.0205 17.7326 14.9493 17.745L14.9495 12.5849ZM29.5735 36.875C28.2693 37.4854 26.8469 37.8018 25.407 37.8018C23.967 37.8018 22.5446 37.4854 21.2405 36.875V34.2C23.9186 35.2515 26.8953 35.2515 29.5735 34.2V36.875ZM37.8546 20.6614C37.8556 21.1257 37.6925 21.5754 37.3941 21.9311C37.0957 22.2868 36.6812 22.5256 36.2238 22.6054C36.0472 22.6363 35.8844 22.7206 35.7573 22.8471C35.6302 22.9736 35.5451 23.136 35.5133 23.3125L34.9475 25.2589C34.9396 25.2861 34.933 25.3138 34.9277 25.3415C34.5104 27.5614 33.3305 29.5657 31.592 31.0079C29.8535 32.45 27.6658 33.2393 25.407 33.2393C23.1482 33.2393 20.9604 32.45 19.2219 31.0079C17.4834 29.5657 16.3035 27.5614 15.8862 25.3415C15.881 25.3138 15.8743 25.2861 15.8665 25.259L15.3006 23.3125C15.2689 23.1361 15.1837 22.9736 15.0567 22.8471C14.9296 22.7207 14.7668 22.6363 14.5902 22.6054C14.3242 22.5581 14.0707 22.4568 13.8453 22.3076C13.62 22.1585 13.4276 21.9648 13.28 21.7384C13.1325 21.512 13.0329 21.2578 12.9875 20.9915C12.942 20.7251 12.9517 20.4522 13.0158 20.1898C13.0641 19.9787 13.1669 19.784 13.3141 19.6253C13.4612 19.4665 13.6476 19.3492 13.8543 19.2851C14.2105 19.4476 14.6011 19.5202 14.9919 19.4966C15.3827 19.473 15.7617 19.3539 16.0957 19.1496C16.4298 18.9454 16.7086 18.6624 16.9077 18.3253C17.1068 17.9883 17.2203 17.6075 17.238 17.2164L17.3865 13.9553C18.0502 13.9586 19.0513 13.944 20.2631 13.859C26.9333 19.559 36.3737 19.2653 36.7777 19.2496C36.7917 19.2496 36.8052 19.2471 36.8191 19.2459C37.056 19.2919 37.2745 19.4055 37.4482 19.573C37.6219 19.7405 37.7434 19.9547 37.7981 20.1898C37.8357 20.3443 37.8547 20.5024 37.8546 20.6614Z" fill="#116FFF"/>
<path d="M40.0709 43.3735L42.9497 45.409L41.8532 48.6931C41.7947 48.8681 41.7931 49.057 41.8484 49.2329C41.9038 49.4089 42.0133 49.5628 42.1614 49.6728C42.3094 49.7827 42.4885 49.8431 42.6729 49.8453C42.8573 49.8474 43.0377 49.7912 43.1883 49.6847L46.0925 47.6312L48.9968 49.6846C49.1474 49.791 49.3277 49.8472 49.5121 49.845C49.6965 49.8428 49.8754 49.7824 50.0235 49.6725C50.1715 49.5626 50.281 49.4087 50.3364 49.2328C50.3917 49.0569 50.3901 48.868 50.3318 48.6931L49.2354 45.409L52.1142 43.3736C52.2658 43.2664 52.3795 43.1137 52.4386 42.9376C52.4977 42.7615 52.4992 42.5711 52.443 42.3941C52.3867 42.2171 52.2756 42.0625 52.1256 41.9529C51.9757 41.8432 51.7948 41.7841 51.609 41.7841H48.0247L46.922 38.4816C46.8639 38.3075 46.7525 38.1561 46.6035 38.0488C46.4546 37.9415 46.2757 37.8838 46.0921 37.8838C45.9085 37.8838 45.7296 37.9415 45.5807 38.0488C45.4317 38.1561 45.3203 38.3075 45.2622 38.4816L44.1594 41.7841H40.576C40.3903 41.7841 40.2094 41.8433 40.0595 41.9529C39.9096 42.0626 39.7985 42.2171 39.7423 42.3941C39.686 42.5711 39.6875 42.7614 39.7466 42.9375C39.8057 43.1135 39.9193 43.2662 40.0709 43.3735V43.3735ZM44.7903 43.5341C44.9739 43.5341 45.1528 43.4764 45.3017 43.3691C45.4507 43.2618 45.5621 43.1104 45.6203 42.9362L46.0925 41.5216L46.5648 42.9362C46.6229 43.1104 46.7344 43.2618 46.8833 43.3691C47.0323 43.4764 47.2112 43.5341 47.3948 43.5341H48.8559L47.6945 44.3552C47.541 44.4637 47.4266 44.6187 47.368 44.7973C47.3095 44.9759 47.31 45.1686 47.3695 45.3469L47.8258 46.7135L46.5975 45.8451C46.4498 45.7407 46.2733 45.6846 46.0924 45.6846C45.9115 45.6846 45.735 45.7407 45.5873 45.8451L44.3589 46.7136L44.8152 45.3469C44.8746 45.1686 44.8751 44.9759 44.8166 44.7974C44.7581 44.6188 44.6436 44.4638 44.4902 44.3554L43.3288 43.5341H44.7903Z" fill="#2CD696"/>
<path d="M38.9815 63.5547C39.1392 63.622 39.3131 63.6415 39.4818 63.6109C39.6504 63.5802 39.8063 63.5006 39.9301 63.3821L46.0926 57.4846L52.2551 63.3821C52.379 63.5007 52.5349 63.5803 52.7036 63.611C52.8723 63.6418 53.0463 63.6222 53.204 63.5549C53.3617 63.4875 53.4962 63.3754 53.5906 63.2323C53.6851 63.0891 53.7354 62.9214 53.7354 62.75V51.739C54.7548 50.7656 55.5666 49.596 56.1222 48.3007C56.6777 47.0053 56.9653 45.6109 56.9678 44.2015C56.9678 38.3529 52.0893 33.5947 46.0928 33.5947C40.0963 33.5947 35.2178 38.3529 35.2178 44.2015C35.2202 45.6109 35.5079 47.0053 36.0634 48.3007C36.6189 49.5961 37.4309 50.7656 38.4503 51.739V62.75C38.4503 62.9214 38.5006 63.0891 38.595 63.2321C38.6895 63.3752 38.8239 63.4874 38.9815 63.5547V63.5547ZM51.9854 60.7015L46.6979 55.6413C46.535 55.4855 46.3183 55.3985 46.0929 55.3985C45.8675 55.3985 45.6508 55.4855 45.4879 55.6413L40.2004 60.7015V53.1116C41.966 54.2198 44.0084 54.8076 46.093 54.8076C48.1775 54.8076 50.2199 54.2198 51.9855 53.1116L51.9854 60.7015ZM36.9678 44.2015C36.9678 39.3179 41.0613 35.3447 46.0928 35.3447C51.1243 35.3447 55.2178 39.3179 55.2178 44.2015C55.2178 49.0851 51.1243 53.0582 46.0928 53.0582C41.0613 53.0582 36.9678 49.0845 36.9678 44.2008V44.2015Z" fill="#2CD696"/>
</svg>
