<svg width="64" height="64" viewBox="0 0 64 64" fill="none" xmlns="http://www.w3.org/2000/svg">
<path d="M32.0311 2.74292H6.14237C5.37553 2.74378 4.64035 3.04879 4.09811 3.59103C3.55587 4.13327 3.25086 4.86845 3.25 5.63529V21.4478C3.25086 22.2146 3.55587 22.9498 4.09811 23.4921C4.64035 24.0343 5.37553 24.3393 6.14237 24.3402L19.0136 24.342C19.5176 27.1398 21.3564 28.0412 21.8261 28.228C21.9666 28.3002 22.126 28.3267 22.2822 28.3038C22.4354 28.2801 22.5781 28.2114 22.692 28.1063C22.806 28.0012 22.886 27.8646 22.922 27.7138C23.0005 27.4338 22.9777 27.102 22.949 26.6823C22.9031 26.0129 22.8405 25.0964 23.2416 24.6669C23.4441 24.4502 23.7994 24.3402 24.2975 24.3402H32.0316C32.7984 24.3393 33.5336 24.0343 34.0758 23.492C34.618 22.9498 34.923 22.2146 34.9239 21.4478V5.63529C34.923 4.86839 34.618 4.13314 34.0756 3.59089C33.5333 3.04864 32.798 2.74368 32.0311 2.74292ZM33.4234 21.448C33.423 21.8172 33.2762 22.1711 33.0152 22.4321C32.7542 22.6932 32.4003 22.84 32.0311 22.8404H24.297C23.3665 22.8404 22.6425 23.1105 22.1449 23.6433C21.4897 24.3448 21.3973 25.3099 21.4171 26.1232C21.0421 25.6992 20.661 25.0452 20.4865 24.0572C20.4236 23.7135 20.2414 23.403 19.9721 23.1805C19.7027 22.9579 19.3635 22.8375 19.0141 22.8404H6.14237C5.77323 22.84 5.41932 22.6932 5.15829 22.4321C4.89726 22.1711 4.75043 21.8172 4.75 21.448V5.63529C4.75043 5.26615 4.89726 4.91224 5.15829 4.65121C5.41932 4.39018 5.77323 4.24335 6.14237 4.24292H32.0311C32.4003 4.24335 32.7542 4.39019 33.0152 4.65122C33.2762 4.91225 33.423 5.26616 33.4234 5.63529V21.448Z" fill="#2CD696"/>
<path d="M20.9198 12.6607L17.1698 10.0672C17.0572 9.9894 16.9255 9.94384 16.789 9.93548C16.6524 9.92713 16.5161 9.9563 16.3949 10.0198C16.2737 10.0834 16.1722 10.1789 16.1014 10.296C16.0306 10.413 15.9932 10.5473 15.9932 10.6841V15.8716C15.9932 16.0084 16.0306 16.1427 16.1015 16.2597C16.1723 16.3768 16.2738 16.4723 16.395 16.5358C16.5162 16.5993 16.6524 16.6285 16.789 16.6201C16.9256 16.6118 17.0573 16.5662 17.1698 16.4884L20.9198 13.8949C21.0195 13.8259 21.1011 13.7337 21.1574 13.6263C21.2137 13.5188 21.2431 13.3994 21.2431 13.2781C21.2431 13.1568 21.2137 13.0373 21.1574 12.9298C21.1011 12.8224 21.0195 12.7302 20.9198 12.6612V12.6607ZM17.4932 14.4405V12.1146L19.1747 13.2771L17.4932 14.4405Z" fill="#2CD696"/>
<path d="M17.8369 6.27759C16.4524 6.27759 15.0991 6.68813 13.9479 7.4573C12.7968 8.22647 11.8996 9.31972 11.3698 10.5988C10.8399 11.8779 10.7013 13.2853 10.9714 14.6432C11.2415 16.0011 11.9082 17.2484 12.8872 18.2273C13.8661 19.2063 15.1134 19.873 16.4713 20.1431C17.8292 20.4132 19.2366 20.2746 20.5157 19.7447C21.7948 19.2149 22.888 18.3177 23.6572 17.1666C24.4264 16.0154 24.8369 14.6621 24.8369 13.2776C24.8348 11.4217 24.0967 9.64244 22.7844 8.33014C21.4721 7.01784 19.6928 6.27967 17.8369 6.27759ZM17.8369 18.7776C16.7491 18.7776 15.6858 18.455 14.7813 17.8507C13.8768 17.2463 13.1719 16.3873 12.7556 15.3823C12.3393 14.3773 12.2304 13.2715 12.4426 12.2046C12.6548 11.1377 13.1786 10.1577 13.9478 9.3885C14.717 8.61931 15.697 8.09549 16.7639 7.88327C17.8308 7.67105 18.9367 7.77997 19.9417 8.19625C20.9467 8.61253 21.8057 9.31748 22.41 10.2219C23.0143 11.1264 23.3369 12.1898 23.3369 13.2776C23.3352 14.7358 22.7552 16.1337 21.7241 17.1648C20.6931 18.1959 19.2951 18.7759 17.8369 18.7776V18.7776Z" fill="#2CD696"/>
<path d="M11.2202 38.5578V35.7936C11.2216 34.7445 11.5677 33.7249 12.2052 32.8917C12.8427 32.0585 13.7363 31.4578 14.7486 31.1821C14.0401 30.9897 13.2967 30.9632 12.5763 31.1046C11.8558 31.2461 11.1777 31.5518 10.5946 31.9978C10.0114 32.4439 9.53896 33.0184 9.21389 33.6767C8.88882 34.3351 8.71989 35.0594 8.72022 35.7936V38.5578C8.72164 39.8246 9.22553 41.0392 10.1213 41.935C11.0172 42.8308 12.2317 43.3347 13.4986 43.3361C13.9208 43.3361 14.3411 43.28 14.7486 43.1693C13.7363 42.8935 12.8427 42.2929 12.2052 41.4597C11.5677 40.6265 11.2216 39.6069 11.2202 38.5578Z" fill="#DCEDFD"/>
<path d="M15.9462 49.0791C17.4834 49.1223 18.9795 48.5802 20.1323 47.5625C19.5436 47.2443 18.9012 47.0375 18.2373 46.9526C17.3629 47.9758 16.1733 48.6793 14.8555 48.9526C15.2146 49.0271 15.5796 49.0694 15.9462 49.0791V49.0791Z" fill="#DCEDFD"/>
<path d="M8.04211 48.5567C8.46434 48.1241 8.95522 47.7644 9.49486 47.492C9.30224 47.3167 9.12096 47.1293 8.95211 46.9309C7.59427 47.0569 6.33236 47.6852 5.41356 48.6929C4.49476 49.7006 3.98526 51.015 3.98486 52.3787V57.8489H6.48486V52.3787C6.4818 50.9496 7.04118 49.5767 8.04211 48.5567V48.5567Z" fill="#DCEDFD"/>
<path d="M28.9312 35.7031V32.5451C28.933 31.2868 29.3605 30.0662 30.1441 29.0816C30.9278 28.0971 32.0214 27.4066 33.2472 27.1225C32.4314 26.9337 31.5835 26.9315 30.7668 27.1161C29.9501 27.3007 29.1856 27.6673 28.5303 28.1886C27.8751 28.7099 27.346 29.3725 26.9825 30.1268C26.619 30.8811 26.4306 31.7078 26.4312 32.5451V35.7031C26.4306 36.5404 26.619 37.3671 26.9825 38.1214C27.346 38.8757 27.8751 39.5383 28.5303 40.0596C29.1856 40.5809 29.9501 40.9475 30.7668 41.1321C31.5835 41.3167 32.4314 41.3145 33.2472 41.1257C32.0214 40.8416 30.9278 40.1511 30.1441 39.1666C29.3605 38.1821 28.933 36.9614 28.9312 35.7031V35.7031Z" fill="#DCEDFD"/>
<path d="M48.1934 38.5578V35.7936C48.1948 34.7445 48.5408 33.7249 49.1784 32.8917C49.8159 32.0585 50.7095 31.4578 51.7217 31.1821C51.0132 30.9897 50.2699 30.9632 49.5494 31.1046C48.829 31.2461 48.1508 31.5518 47.5677 31.9978C46.9846 32.4439 46.5121 33.0184 46.187 33.6767C45.862 34.3351 45.693 35.0594 45.6934 35.7936V38.5578C45.6948 39.8246 46.1987 41.0392 47.0945 41.935C47.9903 42.8308 49.2049 43.3347 50.4717 43.3361V43.3361C50.894 43.3361 51.3143 43.28 51.7217 43.1693C50.7095 42.8935 49.8159 42.2929 49.1784 41.4597C48.5409 40.6265 48.1948 39.6069 48.1934 38.5578V38.5578Z" fill="#DCEDFD"/>
<path d="M52.9195 49.079C54.4573 49.1223 55.9542 48.5796 57.107 47.5609C56.518 47.2427 55.8751 47.0362 55.211 46.9519C54.3366 47.9751 53.147 48.6786 51.8291 48.9519C52.1881 49.0265 52.553 49.0691 52.9195 49.079V49.079Z" fill="#DCEDFD"/>
<path d="M46.0181 47.7464C46.1646 47.6538 46.3157 47.5707 46.4692 47.4929C46.2762 47.3172 46.0946 47.1293 45.9256 46.9304C45.0696 47.0066 44.2441 47.2862 43.5181 47.7459C44.1453 48.8949 44.4737 50.1831 44.4731 51.4922V57.8485H46.9731V51.4927C46.9737 50.1836 46.6453 48.8954 46.0181 47.7464V47.7464Z" fill="#DCEDFD"/>
<path d="M32.0128 25.479C30.1394 25.4811 28.3434 26.2262 27.0187 27.5508C25.694 28.8755 24.9489 30.6715 24.9468 32.5449V35.7029C24.9546 37.5717 25.7025 39.3614 27.0268 40.6801C28.3511 41.9988 30.1438 42.7392 32.0127 42.7392C33.8816 42.7392 35.6744 41.9988 36.9986 40.6801C38.3229 39.3614 39.0708 37.5717 39.0787 35.7029V32.5449C39.0765 30.6715 38.3314 28.8755 37.0068 27.5509C35.6821 26.2262 33.8861 25.4811 32.0128 25.479V25.479ZM37.5787 35.7029C37.5717 37.1745 36.9822 38.5835 35.9391 39.6216C34.8961 40.6597 33.4843 41.2425 32.0127 41.2425C30.5411 41.2425 29.1294 40.6597 28.0863 39.6216C27.0432 38.5835 26.4538 37.1745 26.4468 35.7029V32.5449C26.4538 31.0733 27.0432 29.6643 28.0863 28.6262C29.1294 27.5881 30.5411 27.0053 32.0127 27.0053C33.4843 27.0053 34.8961 27.5881 35.9391 28.6262C36.9822 29.6643 37.5717 31.0733 37.5787 32.5449V35.7029Z" fill="#116FFF"/>
<path d="M44.208 35.7938V38.5579C44.208 40.223 44.8695 41.8199 46.0469 42.9974C47.2243 44.1748 48.8213 44.8362 50.4864 44.8362C52.1515 44.8362 53.7484 44.1748 54.9259 42.9974C56.1033 41.8199 56.7648 40.223 56.7648 38.5579V35.7938C56.7648 34.1286 56.1033 32.5317 54.9259 31.3543C53.7484 30.1769 52.1515 29.5154 50.4864 29.5154C48.8213 29.5154 47.2243 30.1769 46.0469 31.3543C44.8695 32.5317 44.208 34.1286 44.208 35.7938V35.7938ZM55.2648 35.7938V38.5579C55.2648 39.8252 54.7613 41.0406 53.8652 41.9367C52.9691 42.8328 51.7537 43.3362 50.4864 43.3362C49.2191 43.3362 48.0037 42.8328 47.1076 41.9367C46.2114 41.0406 45.708 39.8252 45.708 38.5579V35.7938C45.708 34.5264 46.2114 33.3111 47.1076 32.4149C48.0037 31.5188 49.2191 31.0154 50.4864 31.0154C51.7537 31.0154 52.9691 31.5188 53.8652 32.4149C54.7613 33.3111 55.2648 34.5264 55.2648 35.7938Z" fill="#116FFF"/>
<path d="M54.9661 45.4218C54.5661 45.3928 54.3675 45.6354 54.1567 45.8923C53.7127 46.4349 53.1507 46.869 52.5135 47.1614C51.8762 47.4539 51.1807 47.597 50.4797 47.5799C49.7788 47.5627 49.0911 47.3858 48.4689 47.0625C47.8467 46.7393 47.3066 46.2782 46.8896 45.7145C46.8175 45.6181 46.7235 45.5403 46.6154 45.4874C46.5073 45.4345 46.3881 45.4081 46.2677 45.4104C44.9982 45.4386 43.761 45.8168 42.6927 46.5034C42.008 45.669 41.1585 44.9849 40.1972 44.494C39.236 44.003 38.1838 43.7157 37.1064 43.65C36.7144 43.6314 36.517 43.871 36.2881 44.15C35.7706 44.7825 35.1154 45.2885 34.3726 45.6294C33.6299 45.9703 32.8191 46.1371 32.002 46.1171C31.185 46.0972 30.3833 45.8909 29.6581 45.5141C28.9329 45.1373 28.3033 44.5998 27.8172 43.9428C27.7456 43.8459 27.6516 43.7677 27.5434 43.7148C27.4351 43.6618 27.3157 43.6357 27.1952 43.6386C25.148 43.6861 23.2012 44.5353 21.7738 46.0035C21.6139 46.1673 21.4634 46.3377 21.3195 46.5125C20.3223 45.8701 19.1768 45.4946 17.9929 45.422C17.5936 45.393 17.3943 45.6357 17.1835 45.8925C16.7395 46.4351 16.1774 46.8692 15.5402 47.1617C14.903 47.4542 14.2074 47.5973 13.5065 47.5801C12.8056 47.563 12.1178 47.386 11.4956 47.0628C10.8735 46.7395 10.3333 46.2785 9.91638 45.7148C9.84451 45.6181 9.75054 45.54 9.64233 45.4871C9.53411 45.4342 9.4148 45.408 9.29438 45.4107C7.47691 45.457 5.74943 46.2114 4.48021 47.5131C3.21098 48.8148 2.50042 50.5607 2.5 52.3788V58.599C2.5 58.7979 2.57902 58.9887 2.71967 59.1294C2.86032 59.27 3.05109 59.349 3.25 59.349H19.5375V60.507C19.5375 60.7059 19.6165 60.8967 19.7572 61.0374C19.8978 61.178 20.0886 61.257 20.2875 61.257H43.7375C43.9364 61.257 44.1272 61.178 44.2678 61.0374C44.4085 60.8967 44.4875 60.7059 44.4875 60.507V59.349H60.75C60.9489 59.349 61.1397 59.27 61.2803 59.1294C61.421 58.9887 61.5 58.7979 61.5 58.599V52.3788C61.4988 50.606 60.8226 48.9002 59.609 47.608C58.3954 46.3158 56.7353 45.5341 54.9661 45.4218ZM4 57.849V52.3788C4.0004 51.0151 4.5099 49.7007 5.4287 48.693C6.3475 47.6853 7.6094 47.057 8.96725 46.931C9.53898 47.6032 10.2496 48.1435 11.0502 48.5147C11.8508 48.8859 12.7224 49.0792 13.6048 49.0812C14.4873 49.0832 15.3597 48.8939 16.162 48.5263C16.9643 48.1588 17.6773 47.6217 18.2521 46.9522C19.0454 47.053 19.8067 47.3274 20.4818 47.756C19.86 48.9032 19.5352 50.1878 19.5371 51.4927V57.849H4ZM42.9875 59.757H21.0375V51.4927C21.038 49.8984 21.6373 48.3625 22.7166 47.1892C23.796 46.0159 25.2767 45.2908 26.8654 45.1576C27.5085 45.9262 28.3121 46.5448 29.2196 46.9699C30.1272 47.395 31.1167 47.6163 32.1189 47.6184C33.1211 47.6206 34.1116 47.4034 35.0209 46.9821C35.9302 46.5608 36.7364 45.9456 37.3828 45.1798C38.9271 45.3653 40.35 46.1098 41.3828 47.2729C42.4156 48.4359 42.9867 49.9369 42.9884 51.4923L42.9875 59.757ZM60 57.849H44.4875V51.4927C44.4881 50.1836 44.1597 48.8954 43.5325 47.7464C44.2585 47.2867 45.0839 47.0071 45.9399 46.9309C46.5116 47.6031 47.2223 48.1435 48.0229 48.5147C48.8235 48.8859 49.6951 49.0792 50.5776 49.0812C51.4601 49.0832 52.3325 48.8939 53.1348 48.5263C53.9371 48.1588 54.6502 47.6217 55.225 46.952C56.5441 47.1226 57.7561 47.7674 58.6347 48.7659C59.5134 49.7645 59.9987 51.0487 60 52.3788V57.849Z" fill="#116FFF"/>
<path d="M13.5132 29.5151C11.8487 29.517 10.2528 30.1791 9.0758 31.3562C7.89878 32.5332 7.23672 34.1291 7.23486 35.7936V38.5578C7.23486 40.2229 7.89633 41.8198 9.07376 42.9973C10.2512 44.1747 11.8481 44.8361 13.5132 44.8361C15.1784 44.8361 16.7753 44.1747 17.9527 42.9973C19.1301 41.8198 19.7916 40.2229 19.7916 38.5578V35.7936C19.7898 34.1291 19.1277 32.5332 17.9507 31.3562C16.7737 30.1791 15.1778 29.517 13.5132 29.5151ZM18.2916 38.5578C18.2916 39.8251 17.7882 41.0405 16.8921 41.9366C15.9959 42.8327 14.7805 43.3361 13.5132 43.3361C12.2459 43.3361 11.0305 42.8327 10.1344 41.9366C9.2383 41.0405 8.73486 39.8251 8.73486 38.5578V35.7936C8.73486 34.5263 9.2383 33.3109 10.1344 32.4148C11.0305 31.5187 12.2459 31.0153 13.5132 31.0153C14.7805 31.0153 15.9959 31.5187 16.8921 32.4148C17.7882 33.3109 18.2916 34.5263 18.2916 35.7936V38.5578Z" fill="#116FFF"/>
<path d="M34.456 47.6161C35.3546 47.6424 36.2496 47.4907 37.0893 47.1696C37.9291 46.8484 38.697 46.3643 39.3487 45.7451C38.7285 45.4508 38.0645 45.2598 37.3827 45.1797C36.3605 46.3971 34.9452 47.2194 33.3813 47.5047C33.7361 47.5696 34.0954 47.6068 34.456 47.6161Z" fill="#DCEDFD"/>
<path d="M25.3467 47.0516C25.9162 46.4676 26.5928 45.9988 27.3395 45.6707C27.1727 45.5079 27.0141 45.3369 26.8645 45.1582C25.2758 45.2914 23.7951 46.0164 22.7157 47.1897C21.6364 48.363 21.0371 49.8989 21.0366 51.4932V59.7576H23.5366V51.4927C23.5332 49.832 24.1834 48.2367 25.3467 47.0516Z" fill="#DCEDFD"/>
</svg>
