<svg width="64" height="64" viewBox="0 0 64 64" fill="none" xmlns="http://www.w3.org/2000/svg"><path d="M7 25.8v20.4a3.2 3.2 0 0 0 3.2 3.2h44a3.2 3.2 0 0 0 3.2-3.2V25.8M7 25.8v-5.6a3.2 3.2 0 0 1 3.2-3.2h44a3.2 3.2 0 0 1 3.2 3.2v5.6M7 25.8h50.4" stroke="#2691F4" stroke-width="1.92"/><rect x="37.801" y="41" width="3.2" height="3.2" rx=".8" fill="#2691F4"/><rect x="43.398" y="41" width="3.2" height="3.2" rx=".8" fill="#2691F4"/><rect x="49" y="41" width="3.2" height="3.2" rx=".8" fill="#2691F4"/><mask id="cardRF_svg__a" fill="#fff"><rect x="11.398" y="37" width="13.6" height="8" rx="1.6"/></mask><rect x="11.398" y="37" width="13.6" height="8" rx="1.6" stroke="#2691F4" stroke-width="3.84" mask="url(#cardRF_svg__a)"/></svg>